<svg xmlns="http://www.w3.org/2000/svg" viewBox="0 0 5 6.25" x="0px" y="0px"><title>woman face</title><path d="M2.1461,2.55457a.37263.37263,0,0,0-.10022-.09764.3464.3464,0,0,0-.13182-.05334.3709.3709,0,0,0-.07152-.00892.269.269,0,0,0-.08066.01182A.7071.7071,0,0,0,1.68,2.43777l-.03927.01569L1.619,2.461l-.01095.00342-.007.00193a.31.31,0,0,1-.03694.00629.11965.11965,0,0,1-.03451-.00014.09574.09574,0,0,1-.06511-.02669.01476.01476,0,0,0-.02354.01778.14055.14055,0,0,0,.12185.07178.37687.37687,0,0,0,.16835-.04194l.02277-.00883a.16126.16126,0,0,0,.03454.08621.15237.15237,0,0,0,.09535.05269.13129.13129,0,0,0,.10231-.02628.11306.11306,0,0,0,.04468-.08769c-.00034-.01343-.01961-.01465-.02459-.0037a.11888.11888,0,0,1-.04418.05484.10889.10889,0,0,1-.07433.01478.14066.14066,0,0,1-.10541-.10072L1.79114,2.472l.00566-.00155.00856-.002.042-.00815a.07212.07212,0,0,0,.01415.063.07085.07085,0,0,0,.06265.0179.07181.07181,0,0,0,.05564-.0465.059.059,0,0,0,.00221-.0262l.02169.00754a.29468.29468,0,0,1,.0361.01432.21286.21286,0,0,1,.03176.02064.26905.26905,0,0,1,.05422.05885C2.135,2.58354,2.15491,2.56825,2.1461,2.55457Z"/><path d="M2.12271,2.43445c-.012-.01078-.02328-.02218-.03625-.03183a.29952.29952,0,0,0-.04352-.02613.48809.48809,0,0,0-.09274-.03486.37.37,0,0,0-.09593-.01381.38744.38744,0,0,0-.096.013.40112.40112,0,0,0-.1.042c-.01029.00589-.00042.02347.01028.01828a.37108.37108,0,0,1,.22515-.02086.4495.4495,0,0,1,.10724.03237c.0176.00766.0349.016.05213.02444.01759.00864.03609.01542.05335.02469C2.12334,2.4708,2.13552,2.44594,2.12271,2.43445Z"/><path d="M2.18676,2.21477a.06362.06362,0,0,0-.04823-.02314l-.043-.00736c-.026-.00522-.05172-.01166-.07731-.01856-.05262-.0142-.10467-.03051-.158-.04213A.58413.58413,0,0,0,1.7195,2.1095a.30933.30933,0,0,0-.07176.00957.30134.30134,0,0,0-.05853.01991.33906.33906,0,0,0-.1132.0876c-.0106.013.00881.027.02005.01569A.1929.1929,0,0,1,1.59566,2.19.401.401,0,0,1,1.657,2.18213l.02864-.00079c.00534-.00015.01068-.0002.016-.00017l.00643.00006.00475,0H1.7132a.733.733,0,0,1,.12936.0188c.02525.00592.05027.01284.07524.01987l.00961.00272.00546.00156.0154.00444.04631.01326c.02746.00771.05505.015.083.02095l.04293.00793a.0675.0675,0,0,0,.05978-.00921A.03452.03452,0,0,0,2.18676,2.21477Z"/><path d="M1.7964,2.60793a.32827.32827,0,0,1-.13552-.05017.01249.01249,0,0,0-.01538.01966.18741.18741,0,0,0,.1503.05877A.01431.01431,0,0,0,1.7964,2.60793Z"/><path d="M2.35374,2.53488a.2003.2003,0,0,0-.03883-.09648.46414.46414,0,0,0-.06656-.076c-.0101-.00948-.02682.00672-.01747.01717a.317.317,0,0,1,.05093.07749c.0065.01389.01268.02807.018.04245a.41212.41212,0,0,0,.019.04409A.01825.01825,0,0,0,2.35374,2.53488Z"/><path d="M2.14257,2.59452a.0174.0174,0,0,0-.01579.00246.03531.03531,0,0,0-.01511.01713.01126.01126,0,0,0-.00267.01412.01115.01115,0,0,0,.01382.005l.00133-.0006a.03734.03734,0,0,0,.023-.00866.01692.01692,0,0,0,.00661-.01532l.00014.00226A.01456.01456,0,0,0,2.14257,2.59452Z"/><path d="M2.33089,3.318c-.01394-.01342-.03356-.015-.04922-.02571a.03932.03932,0,0,1-.02028-.03777c.00335-.01384-.01862-.01985-.02379-.00682a.06638.06638,0,0,0,.01014.06874.0866.0866,0,0,0,.07381.03436A.01867.01867,0,0,0,2.33089,3.318Z"/><path d="M2.43608,3.32526,2.432,3.308,2.42234,3.2892a.0981.0981,0,0,0-.02755-.02676c-.02081-.01349-.05908-.02133-.07248.00644A.01586.01586,0,0,0,2.327,3.2871c.01069.01069.02763.01408.03914.023a.20866.20866,0,0,1,.01765.0171l.01011.00941.01021.00671C2.41763,3.3576,2.44439,3.34609,2.43608,3.32526Z"/><path d="M2.5206,3.7405A.01923.01923,0,0,0,2.50148,3.729l-.00265-.00006a.294.294,0,0,0-.04356-.01119l-.0191-.00609-.02364-.0075a.27611.27611,0,0,0-.11694-.00754c-.03515.00484-.06959.01381-.10456.01973a.33181.33181,0,0,1-.04748.00486.2004.2004,0,0,1-.03992-.00186.1261.1261,0,0,1-.04436-.01377c-.01111-.00607-.02721-.01788-.02967-.03112-.003-.0162-.02859-.01348-.02557.0028a.13157.13157,0,0,0,.01491.04731.12508.12508,0,0,0,.03443.03609.18143.18143,0,0,0,.10991.02779.69229.69229,0,0,0,.10944-.01675.26419.26419,0,0,1,.1131-.00209.37924.37924,0,0,0,.06185.0105.1184.1184,0,0,0,.03712-.0028A.10574.10574,0,0,0,2.51458,3.762.01849.01849,0,0,0,2.5206,3.7405Z"/><path d="M2.51533,3.99382a.35914.35914,0,0,0-.10276-.0121c-.034-.00154-.06756-.00461-.10127-.0089a.21313.21313,0,0,1-.07958-.025.278.278,0,0,1-.06724-.05106.013.013,0,0,0-.02072.01565.48168.48168,0,0,0,.05124.07667.18129.18129,0,0,0,.09663.04974.60817.60817,0,0,0,.10622.01177.23827.23827,0,0,0,.11687-.0151A.02292.02292,0,0,0,2.52877,4.015.02239.02239,0,0,0,2.51533,3.99382Z"/><path d="M2.52253,3.58238a.04532.04532,0,0,0-.02817-.02755l-.0217-.00789a.24256.24256,0,0,0-.05384-.01056A.23878.23878,0,0,0,2.31,3.55274a.27643.27643,0,0,0-.08794.057.22846.22846,0,0,1-.044.03491.28.28,0,0,1-.05365.02111.01253.01253,0,0,0,.006.024.26573.26573,0,0,0,.10373-.03561c.01333-.00894.026-.01905.04-.02689a.21079.21079,0,0,1,.04415-.0179l.01991-.00394L2.36113,3.603l.02318-.001.00855,0,.00923.00054a.27284.27284,0,0,1,.04549.008l.00254.00068.00488.00155.00933.00334.01752.00616a.06562.06562,0,0,0,.0117.00053l.00557-.00139C2.51533,3.61892,2.53207,3.59949,2.52253,3.58238Z"/><path d="M1.48289,3.74021a1.05225,1.05225,0,0,1-.0364-.236C1.44314,3.463,1.43937,3.42175,1.432,3.381a1.07409,1.07409,0,0,0-.03258-.12834c-.02576-.08224-.05853-.16212-.08392-.24446a1.43741,1.43741,0,0,1-.05279-.248A1.09735,1.09735,0,0,1,1.26731,2.467a.01223.01223,0,0,0-.02417-.00368,1.30046,1.30046,0,0,0-.03073.26283,1.001,1.001,0,0,0,.02725.26364c.0214.08641.0533.16912.0815.25339l.00431.01305a.15233.15233,0,0,1-.02586-.01662.09027.09027,0,0,1-.02052-.02108l-.00937-.01379-.0011-.00168L1.268,3.20191l-.00529-.01054a.938.938,0,0,1-.04692-.15274c-.016-.05814-.03081-.11674-.04814-.17449a1.558,1.558,0,0,1-.04509-.17062.79666.79666,0,0,1-.0108-.09855.4779.4779,0,0,1,.00306-.09844.01337.01337,0,0,0-.02642-.004.86061.86061,0,0,0-.01672.09343.52.52,0,0,0-.00082.09231,1.14325,1.14325,0,0,0,.03348.17975c.01519.06267.03252.12483.04918.18713l.0247.09176a.512.512,0,0,0,.02349.07142.21233.21233,0,0,0,.05364.07615A.22919.22919,0,0,0,1.295,3.311a.07584.07584,0,0,0,.05119.01509l.0003-.00007.009.03748a1.136,1.136,0,0,1,.01768.12375.60153.60153,0,0,0,.07.27527.02279.02279,0,0,0,.02948.006A.02321.02321,0,0,0,1.48289,3.74021Z"/><path d="M2.4707,4.479c-.01821-.003-.03629-.00763-.05456-.01-.01843-.00243-.0368-.00528-.05506-.00876-.03665-.007-.07325-.014-.1094-.02334l-.027-.00718-.00505-.00139-.004-.00112-.00416-.00121-.00836-.00252q-.02673-.0082-.05295-.01793a.96682.96682,0,0,1-.10235-.0449q-.0243-.01239-.04786-.02614L1.99146,4.3294,1.98106,4.323l-.02489-.01618a1.02749,1.02749,0,0,1-.0895-.06686.97793.97793,0,0,1-.07973-.07577c-.02834-.03-.05437-.062-.08026-.09416-.04028-.05-.08045-.1008-.117-.15385l-.002-.004-.00422-.005c-.01388-.02046-.02722-.04126-.03979-.0625-.00791-.01336-.02718.00129-.01931.01459.018.03036.03425.06168.05039.09308l.00548.034c.00324.02238.00523.04507.0067.06763.00313.04814.00389.09637.00538.14458q.00227.07354.00291.14718.00028.0373.00024.07461l-.00022.03047-.00032.00943-.001.017a.40055.40055,0,0,1-.00933.06315l-.001.004-.00189.006-.00554.01534c-.00334.00814-.00775.02064-.01091.026a.0285.0285,0,0,0,.00225.03674.028.028,0,0,0,.0367.00288.1398.1398,0,0,0,.04374-.0541.23549.23549,0,0,0,.01747-.06336.84488.84488,0,0,0,.00281-.142,2.31227,2.31227,0,0,0-.02985-.302l.00854.01382a.93932.93932,0,0,0,.56547.415.71414.71414,0,0,0,.12538.02192c.02217.00194.04463.00208.06687.002a.38934.38934,0,0,0,.0653-.00748A.01825.01825,0,0,0,2.4707,4.479Z"/><polygon points="1.199 1.384 1.199 1.384 1.199 1.384 1.199 1.384"/><path d="M1.97054.46074a.88378.88378,0,0,0-.10477.02151A.9489.9489,0,0,0,1.76763.5189a1.20768,1.20768,0,0,0-.187.10164,1.046,1.046,0,0,0-.309.30745,1.15632,1.15632,0,0,0-.09983.21306q-.02017.05411-.03829.109c-.01206.03672-.02494.07343-.03451.1109a1.657,1.657,0,0,0-.04829.45657,1.51416,1.51416,0,0,0,.02349.227.80178.80178,0,0,0,.06815.21905c.0084.0166.01546.03386.02348.05067A.01249.01249,0,0,0,1.189,2.3051a.53444.53444,0,0,1-.01289-.05372c-.003-.01816-.00612-.036-.00993-.054l-.00585-.02906a.054.054,0,0,0,.05712,0,.01416.01416,0,0,0,.00276-.01978l-.01651-.01605-.009-.00781-.00448-.00411L1.1893,2.11924l-.01495-.019-.00647-.00979c-.00243-.00429-.00083.00048-.00193-.00425a.023.023,0,0,0-.022-.01993L1.142,2.06631l-.00356-.02243a.09261.09261,0,0,0,.0371.01084.07844.07844,0,0,0,.02727-.00206c.00734-.00217.01279-.007.01977-.00961.01424-.00529.00778-.02517-.00614-.02473l-.013-.00544-.01551-.00634a.11.11,0,0,1-.02518-.017l-.00645-.0059-.00158-.00133L1.15366,1.981l-.00917-.01229-.00237-.00476-.0026-.00669A.05786.05786,0,0,0,1.129,1.93683l-.00391-.00348-.00145-.01669a.17185.17185,0,0,0,.02472.01575.12643.12643,0,0,0,.09242.00867.11865.11865,0,0,0,.03684-.01824.06512.06512,0,0,0,.02656-.034.01331.01331,0,0,0-.01452-.01515c-.01036.0023-.0194.00893-.0299.01163a.08783.08783,0,0,1-.0265.00238.11984.11984,0,0,1-.058-.01654l-.00349-.00248-.00779-.00592-.00614-.00533-.00157-.00137-.00139-.0016A.19423.19423,0,0,1,1.13436,1.827l-.00571-.00992-.00141-.00234-.00069-.00137-.007-.015-.00074-.00168.00517.00382a.18.18,0,0,0,.18563-.00514.18494.18494,0,0,0,.0441-.03249.40523.40523,0,0,0,.02973-.041c.00889-.01163-.00741-.03005-.01875-.01908a.14235.14235,0,0,1-.039.02259.43748.43748,0,0,1-.04379.01868.16949.16949,0,0,1-.042.00926l-.024.00128-.00448,0L1.208,1.75442l-.01173-.00133L1.18474,1.751l-.00212-.00053-.00344-.00121L1.1706,1.7455,1.16415,1.741l-.00324-.00276-.00076-.00084-.00689-.009-.006-.00964-.0021-.00344L1.14452,1.7141a.41067.41067,0,0,1-.01719-.04471l-.00419-.01656.00008-.00116q.00275-.0375.00717-.07482a.1771.1771,0,0,0,.059.03269.23252.23252,0,0,0,.16558-.01063.60649.60649,0,0,0,.149-.09967q.07463-.063.148-.12744c.05482-.04816.10734-.09882.16237-.14675.01257-.01095-.00222-.03129-.01581-.02092-.04875.03719-.09948.07158-.14848.10841-.0484.03638-.09628.0734-.14409.11055-.02338.01817-.04692.03613-.07119.0531l-.034.02267a.34535.34535,0,0,1-.03087.0178c-.011.00563-.02212.01087-.03356.01543l-.019.00686-.00877.00267-.00354.001-.00322.00073a.23342.23342,0,0,1-.03793.00494l-.00735.00021-.001,0L1.2539,1.54833l-.018-.00215-.006-.00115L1.2224,1.54318l-.01512-.00565-.01445-.00716-.00113-.0008-.00963-.00694-.01174-.01046-.00066-.0008L1.163,1.50357a.14381.14381,0,0,0-.01947-.01936l.00768-.04266.00618.00415a.16264.16264,0,0,0,.12943.00482.84906.84906,0,0,0,.211-.08552,1.2518,1.2518,0,0,0,.10744-.07043c.01409-.01013-.00165-.02971-.016-.02113a.88113.88113,0,0,1-.18059.07863.94567.94567,0,0,1-.09147.02463c-.01666.00367-.03339.007-.05022.00978l-.02315.00325-.01173.00089a.03863.03863,0,0,1-.01012-.00017l-.013-.002-.00034-.00011-.00681-.0026-.003-.00142-.00026-.00012-.00082-.00038.00079.00036L1.1981,1.3838,1.19336,1.38l-.006-.00832-.00053-.00087L1.186,1.36862l-.00484-.01025-.00255-.00571a.02768.02768,0,0,0-.00705-.01432c.00846-.04089.01784-.08155.02985-.12165a1.18922,1.18922,0,0,1,.084-.20928A.95039.95039,0,0,1,1.56917.69375l.01379-.01L1.5742.6987a.46012.46012,0,0,0-.02534.05421.51055.51055,0,0,0-.03006.119.38177.38177,0,0,0,.03418.23727.25035.25035,0,0,0,.03622.051.14016.14016,0,0,0,.0262.02373.05007.05007,0,0,0,.043.0087.0261.0261,0,0,0,.01625-.027.04413.04413,0,0,0-.0136-.02664l-.01182-.012-.00375-.00337-.00421-.00405-.00163-.00173-.00448-.005-.00746-.00911L1.61316,1.083l-.00265-.00432-.0022-.00382-.001-.00181L1.60431,1.067,1.59485,1.0453a.24433.24433,0,0,1-.0132-.048A.58092.58092,0,0,1,1.5948.778c.00429-.02032.00913-.04062.01489-.06058L1.61778.68773a.14787.14787,0,0,1,.013-.02985L1.63234.65036q.045-.02877.09247-.05326a.48959.48959,0,0,0-.02574.05148.60971.60971,0,0,0-.03925.12793.397.397,0,0,0,.031.273.17275.17275,0,0,0,.10585.09163A.02931.02931,0,0,0,1.82416,1.095c-.013-.01434-.02769-.0257-.04175-.03886L1.779,1.05284l-.0019-.002-.00865-.01-.01556-.02153-.00491-.008L1.74271,1.0012,1.7319.97682a.24381.24381,0,0,1-.01471-.057A.54251.54251,0,0,1,1.743.68195c.01222-.03882.02947-.07569.04324-.11384.04746-.02059.09612-.03821.14445-.05678.016-.00615.03175-.01221.0482-.01711C1.99756.48865,1.98981.45728,1.97054.46074Z"/><path d="M1.99275,1.10033A.06111.06111,0,0,0,1.96969,1.08L1.96113,1.076c-.00209-.001-.00978-.0059-.00429-.00217l-.01656-.01206L1.932,1.05438l-.0009-.00086-.0026-.00275a.26447.26447,0,0,1-.02571-.0334l-.006-.0097L1.8956,1.0059l-.00082-.00156L1.88467.98385a.47364.47364,0,0,1-.04173-.191A.37822.37822,0,0,1,1.8594.6815C1.86463.664,1.83984.652,1.83254.66991a.49364.49364,0,0,0-.0368.22.36385.36385,0,0,0,.07211.20058.21044.21044,0,0,0,.0414.039.16723.16723,0,0,0,.0285.01651.05433.05433,0,0,0,.04205.00051A.03047.03047,0,0,0,1.99275,1.10033Z"/><path d="M1.55978,1.21153a.17372.17372,0,0,0-.04009-.02178l-.00811-.00414L1.51052,1.185l-.005-.0031-.01726-.0127-.00693-.0061-.00365-.00349L1.47714,1.159l-.01308-.01548L1.4515,1.12563l-.00867-.0149a.27294.27294,0,0,1-.02589-.0936A.44224.44224,0,0,1,1.41627.90671a.01337.01337,0,0,0-.02642-.004.94334.94334,0,0,0-.01648.12317.28674.28674,0,0,0,.01923.11153.22419.22419,0,0,0,.05938.08324.10709.10709,0,0,0,.10181.0325A.02447.02447,0,0,0,1.55978,1.21153Z"/><path d="M1.36427,1.19324a.20171.20171,0,0,1-.05445-.05905c-.008-.01519-.03318-.0054-.02507.01a.18091.18091,0,0,0,.06087.07293C1.36179,1.22715,1.37974,1.20584,1.36427,1.19324Z"/><path d="M2.87422,2.56992a.26905.26905,0,0,1,.05422-.05885.21286.21286,0,0,1,.03176-.02064.29468.29468,0,0,1,.0361-.01432L3.018,2.46856a.059.059,0,0,0,.00221.0262.07181.07181,0,0,0,.05564.0465.07085.07085,0,0,0,.06265-.0179.07212.07212,0,0,0,.01415-.063l.042.00815.00856.002.00566.00155.00887.00272a.14066.14066,0,0,1-.10541.10072A.10889.10889,0,0,1,3.038,2.56067a.11888.11888,0,0,1-.04418-.05484c-.005-.011-.02424-.00973-.02459.0037a.11306.11306,0,0,0,.04468.08769.13129.13129,0,0,0,.10231.02628.15237.15237,0,0,0,.09535-.05269.16126.16126,0,0,0,.03454-.08621l.02277.00883a.37687.37687,0,0,0,.16835.04194.14055.14055,0,0,0,.12185-.07178.01476.01476,0,0,0-.02354-.01778.09574.09574,0,0,1-.06511.02669.11965.11965,0,0,1-.03451.00014A.31.31,0,0,1,3.399,2.46633l-.007-.00193L3.381,2.461l-.02172-.00752L3.32,2.43777a.7071.7071,0,0,0-.08189-.03129.269.269,0,0,0-.08066-.01182.3709.3709,0,0,0-.07152.00892.3464.3464,0,0,0-.13182.05334.37263.37263,0,0,0-.10022.09764C2.84509,2.56825,2.865,2.58354,2.87422,2.56992Z"/><path d="M2.87729,2.43445c.012-.01078.02328-.02218.03625-.03183a.29952.29952,0,0,1,.04352-.02613.48809.48809,0,0,1,.09274-.03486.37.37,0,0,1,.09593-.01381.38744.38744,0,0,1,.096.013.40112.40112,0,0,1,.1.042c.01029.00589.00042.02347-.01028.01828a.37108.37108,0,0,0-.22515-.02086.4495.4495,0,0,0-.10724.03237c-.0176.00766-.0349.016-.05213.02444-.01759.00864-.03609.01542-.05335.02469C2.87666,2.4708,2.86448,2.44594,2.87729,2.43445Z"/><path d="M2.81324,2.21477a.06362.06362,0,0,1,.04823-.02314l.043-.00736c.026-.00522.05172-.01166.07731-.01856.05262-.0142.10467-.03051.158-.04213A.58413.58413,0,0,1,3.2805,2.1095a.30933.30933,0,0,1,.07176.00957.30134.30134,0,0,1,.05853.01991.33906.33906,0,0,1,.1132.0876c.0106.013-.00881.027-.02005.01569A.1929.1929,0,0,0,3.40434,2.19.401.401,0,0,0,3.343,2.18213l-.02864-.00079c-.00534-.00015-.01068-.0002-.016-.00017l-.00643.00006-.00475,0H3.2868a.733.733,0,0,0-.12936.0188c-.02525.00592-.05027.01284-.07524.01987l-.00961.00272-.00546.00156-.0154.00444L3.00543,2.242c-.02746.00771-.05505.015-.083.02095l-.04293.00793a.0675.0675,0,0,1-.05978-.00921A.03452.03452,0,0,1,2.81324,2.21477Z"/><path d="M3.2036,2.60793a.32827.32827,0,0,0,.13552-.05017.01249.01249,0,0,1,.01538.01966.18741.18741,0,0,1-.1503.05877A.01431.01431,0,0,1,3.2036,2.60793Z"/><path d="M2.64626,2.53488a.2003.2003,0,0,1,.03883-.09648.46414.46414,0,0,1,.06656-.076c.0101-.00948.02682.00672.01747.01717a.317.317,0,0,0-.05093.07749c-.0065.01389-.01268.02807-.018.04245a.41212.41212,0,0,1-.019.04409A.01825.01825,0,0,1,2.64626,2.53488Z"/><path d="M2.85743,2.59452a.0174.0174,0,0,1,.01579.00246.03531.03531,0,0,1,.01511.01713.01126.01126,0,0,1,.00267.01412.01115.01115,0,0,1-.01382.005l-.00133-.0006a.03734.03734,0,0,1-.023-.00866.01692.01692,0,0,1-.00661-.01532l-.00014.00226A.01456.01456,0,0,1,2.85743,2.59452Z"/><path d="M2.66911,3.318c.01394-.01342.03356-.015.04922-.02571a.03932.03932,0,0,0,.02028-.03777c-.00335-.01384.01862-.01985.02379-.00682a.06638.06638,0,0,1-.01014.06874.0866.0866,0,0,1-.07381.03436A.01867.01867,0,0,1,2.66911,3.318Z"/><path d="M2.56392,3.32526,2.568,3.308l.00962-.01884a.0981.0981,0,0,1,.02755-.02676c.02081-.01349.05908-.02133.07248.00644A.01586.01586,0,0,1,2.673,3.2871c-.01069.01069-.02763.01408-.03914.023a.20866.20866,0,0,0-.01765.0171l-.01011.00941-.01021.00671C2.58237,3.3576,2.55561,3.34609,2.56392,3.32526Z"/><path d="M2.4794,3.7405A.01923.01923,0,0,1,2.49852,3.729l.00265-.00006a.294.294,0,0,1,.04356-.01119l.0191-.00609.02364-.0075a.27611.27611,0,0,1,.11694-.00754c.03515.00484.06959.01381.10456.01973a.33181.33181,0,0,0,.04748.00486.2004.2004,0,0,0,.03992-.00186.1261.1261,0,0,0,.04436-.01377c.01111-.00607.02721-.01788.02967-.03112.003-.0162.02859-.01348.02557.0028a.13157.13157,0,0,1-.01491.04731.12508.12508,0,0,1-.03443.03609.18143.18143,0,0,1-.10991.02779.69229.69229,0,0,1-.10944-.01675.26419.26419,0,0,0-.1131-.00209.37924.37924,0,0,1-.06185.0105.1184.1184,0,0,1-.03712-.0028A.10574.10574,0,0,1,2.48542,3.762.01849.01849,0,0,1,2.4794,3.7405Z"/><path d="M2.48467,3.99382a.35914.35914,0,0,1,.10276-.0121c.034-.00154.06756-.00461.10127-.0089a.21313.21313,0,0,0,.07958-.025.278.278,0,0,0,.06724-.05106.013.013,0,0,1,.02072.01565.48168.48168,0,0,1-.05124.07667.18129.18129,0,0,1-.09663.04974.60817.60817,0,0,1-.10622.01177.23827.23827,0,0,1-.11687-.0151A.02292.02292,0,0,1,2.47123,4.015.02239.02239,0,0,1,2.48467,3.99382Z"/><path d="M2.47747,3.58238a.04532.04532,0,0,1,.02817-.02755l.0217-.00789a.24256.24256,0,0,1,.05384-.01056A.23878.23878,0,0,1,2.69,3.55274a.27643.27643,0,0,1,.08794.057.22846.22846,0,0,0,.044.03491.28.28,0,0,0,.05365.02111.01253.01253,0,0,1-.006.024.26573.26573,0,0,1-.10373-.03561c-.01333-.00894-.026-.01905-.04-.02689a.21079.21079,0,0,0-.04415-.0179l-.01991-.00394L2.63887,3.603l-.02318-.001-.00855,0-.00923.00054a.27284.27284,0,0,0-.04549.008l-.00254.00068L2.545,3.61276l-.00933.00334-.01752.00616a.06562.06562,0,0,1-.0117.00053l-.00557-.00139C2.48467,3.61892,2.46793,3.59949,2.47747,3.58238Z"/><path d="M3.51711,3.74021a1.05225,1.05225,0,0,0,.0364-.236c.00335-.04126.00712-.08249.01454-.12325a1.07409,1.07409,0,0,1,.03258-.12834c.02576-.08224.05853-.16212.08392-.24446a1.43741,1.43741,0,0,0,.05279-.248A1.09735,1.09735,0,0,0,3.73269,2.467a.01223.01223,0,0,1,.02417-.00368,1.30046,1.30046,0,0,1,.03073.26283,1.001,1.001,0,0,1-.02725.26364c-.0214.08641-.0533.16912-.0815.25339l-.00431.01305a.15233.15233,0,0,0,.02586-.01662.09027.09027,0,0,0,.02052-.02108l.00937-.01379.0011-.00168L3.732,3.20191l.00529-.01054a.938.938,0,0,0,.04692-.15274c.016-.05814.03081-.11674.04814-.17449a1.558,1.558,0,0,0,.04509-.17062.79666.79666,0,0,0,.0108-.09855.4779.4779,0,0,0-.00306-.09844.01337.01337,0,0,1,.02642-.004.86061.86061,0,0,1,.01672.09343.52.52,0,0,1,.00082.09231,1.14325,1.14325,0,0,1-.03348.17975c-.01519.06267-.03252.12483-.04918.18713l-.0247.09176a.512.512,0,0,1-.02349.07142.21233.21233,0,0,1-.05364.07615A.22919.22919,0,0,1,3.705,3.311a.07584.07584,0,0,1-.05119.01509L3.65349,3.326l-.009.03748a1.136,1.136,0,0,0-.01768.12375.60153.60153,0,0,1-.07.27527.02279.02279,0,0,1-.02948.006A.02321.02321,0,0,1,3.51711,3.74021Z"/><path d="M2.5293,4.479c.01821-.003.03629-.00763.05456-.01.01843-.00243.0368-.00528.05506-.00876.03665-.007.07325-.014.1094-.02334l.027-.00718.00505-.00139.004-.00112.00416-.00121.00836-.00252q.02673-.0082.05295-.01793a.96682.96682,0,0,0,.10235-.0449q.0243-.01239.04786-.02614l.00844-.00506L3.01894,4.323l.02489-.01618a1.02749,1.02749,0,0,0,.0895-.06686.97793.97793,0,0,0,.07973-.07577c.02834-.03.05437-.062.08026-.09416.04028-.05.08045-.1008.117-.15385l.002-.004.00422-.005c.01388-.02046.02722-.04126.03979-.0625.00791-.01336.02718.00129.01931.01459-.018.03036-.03425.06168-.05039.09308l-.00548.034c-.00324.02238-.00523.04507-.0067.06763-.00313.04814-.00389.09637-.00538.14458q-.00227.07354-.00291.14718-.00028.0373-.00024.07461l.00022.03047.00032.00943.001.017a.40055.40055,0,0,0,.00933.06315l.001.004.00189.006.00554.01534c.00334.00814.00775.02064.01091.026a.0285.0285,0,0,1-.00225.03674.028.028,0,0,1-.0367.00288.1398.1398,0,0,1-.04374-.0541.23549.23549,0,0,1-.01747-.06336.84488.84488,0,0,1-.00281-.142,2.31227,2.31227,0,0,1,.02985-.302l-.00854.01382a.93932.93932,0,0,1-.56547.415.71414.71414,0,0,1-.12538.02192c-.02217.00194-.04463.00208-.06687.002a.38934.38934,0,0,1-.0653-.00748A.01825.01825,0,0,1,2.5293,4.479Z"/><polygon points="3.801 1.384 3.801 1.384 3.801 1.384 3.801 1.384"/><path d="M3.02946.46074a.88378.88378,0,0,1,.10477.02151A.9489.9489,0,0,1,3.23237.5189a1.20768,1.20768,0,0,1,.187.10164,1.046,1.046,0,0,1,.309.30745,1.15632,1.15632,0,0,1,.09983.21306q.02017.05411.03829.109c.01206.03672.02494.07343.03451.1109a1.657,1.657,0,0,1,.04829.45657,1.51416,1.51416,0,0,1-.02349.227.80178.80178,0,0,1-.06815.21905c-.0084.0166-.01546.03386-.02348.05067A.01249.01249,0,0,1,3.811,2.3051a.53444.53444,0,0,0,.01289-.05372c.003-.01816.00612-.036.00993-.054l.00585-.02906a.054.054,0,0,1-.05712,0,.01416.01416,0,0,1-.00276-.01978l.01651-.01605.009-.00781.00448-.00411.00088-.00139.01495-.019.00647-.00979c.00243-.00429.00083.00048.00193-.00425a.023.023,0,0,1,.022-.01993l.00194.00008.00356-.02243a.09261.09261,0,0,1-.0371.01084.07844.07844,0,0,1-.02727-.00206c-.00734-.00217-.01279-.007-.01977-.00961-.01424-.00529-.00778-.02517.00614-.02473l.013-.00544.01551-.00634a.11.11,0,0,0,.02518-.017l.00645-.0059.00158-.00133L3.84634,1.981l.00917-.01229.00237-.00476.0026-.00669A.05786.05786,0,0,1,3.871,1.93683l.00391-.00348.00145-.01669a.17185.17185,0,0,1-.02472.01575.12643.12643,0,0,1-.09242.00867.11865.11865,0,0,1-.03684-.01824.06512.06512,0,0,1-.02656-.034.01331.01331,0,0,1,.01452-.01515c.01036.0023.0194.00893.0299.01163a.08783.08783,0,0,0,.0265.00238.11984.11984,0,0,0,.058-.01654l.00349-.00248.00779-.00592.00614-.00533.00157-.00137.00139-.0016A.19423.19423,0,0,0,3.86564,1.827l.00571-.00992.00141-.00234.00069-.00137.007-.015.00074-.00168L3.876,1.80049a.18.18,0,0,1-.18563-.00514.18494.18494,0,0,1-.0441-.03249.40523.40523,0,0,1-.02973-.041c-.00889-.01163.00741-.03005.01875-.01908a.14235.14235,0,0,0,.039.02259.43748.43748,0,0,0,.04379.01868.16949.16949,0,0,0,.042.00926l.024.00128.00448,0L3.792,1.75442l.01173-.00133L3.81526,1.751l.00212-.00053.00344-.00121L3.8294,1.7455,3.83585,1.741l.00324-.00276.00076-.00084.00689-.009.006-.00964.0021-.00344.00064-.00126a.41067.41067,0,0,0,.01719-.04471l.00419-.01656-.00008-.00116q-.00275-.0375-.00717-.07482a.1771.1771,0,0,1-.059.03269.23252.23252,0,0,1-.16558-.01063.60649.60649,0,0,1-.149-.09967q-.07463-.063-.148-.12744c-.05482-.04816-.10734-.09882-.16237-.14675-.01257-.01095.00222-.03129.01581-.02092.04875.03719.09948.07158.14848.10841.0484.03638.09628.0734.14409.11055.02338.01817.04692.03613.07119.0531l.034.02267a.34535.34535,0,0,0,.03087.0178c.011.00563.02212.01087.03356.01543l.019.00686.00877.00267.00354.001.00322.00073a.23342.23342,0,0,0,.03793.00494l.00735.00021.001,0,.00161-.00016.018-.00215.006-.00115.00755-.00185.01512-.00565.01445-.00716.00113-.0008.00963-.00694.01174-.01046.00066-.0008.00664-.0078a.14381.14381,0,0,1,.01947-.01936l-.00768-.04266-.00618.00415a.16264.16264,0,0,1-.12943.00482.84906.84906,0,0,1-.211-.08552,1.2518,1.2518,0,0,1-.10744-.07043c-.01409-.01013.00165-.02971.016-.02113a.88113.88113,0,0,0,.18059.07863.94567.94567,0,0,0,.09147.02463c.01666.00367.03339.007.05022.00978l.02315.00325.01173.00089a.03863.03863,0,0,0,.01012-.00017l.013-.002.00034-.00011.00681-.0026.003-.00142.00026-.00012.00082-.00038-.00079.00036L3.8019,1.3838,3.80664,1.38l.006-.00832.00053-.00087L3.814,1.36862l.00484-.01025.00255-.00571a.02768.02768,0,0,1,.00705-.01432c-.00846-.04089-.01784-.08155-.02985-.12165a1.18922,1.18922,0,0,0-.084-.20928A.95039.95039,0,0,0,3.43083.69375L3.417.68379,3.4258.6987a.46012.46012,0,0,1,.02534.05421.51055.51055,0,0,1,.03006.119.38177.38177,0,0,1-.03418.23727.25035.25035,0,0,1-.03622.051.14016.14016,0,0,1-.0262.02373.05007.05007,0,0,1-.043.0087.0261.0261,0,0,1-.01625-.027.04413.04413,0,0,1,.0136-.02664l.01182-.012.00375-.00337.00421-.00405.00163-.00173.00448-.005.00746-.00911L3.38684,1.083l.00265-.00432.0022-.00382.001-.00181L3.39569,1.067l.00945-.02175a.24433.24433,0,0,0,.0132-.048A.58092.58092,0,0,0,3.4052.778C3.40091.75772,3.39607.73742,3.39031.71746L3.38222.68773a.14787.14787,0,0,0-.013-.02985L3.36766.65036Q3.3227.62159,3.27518.59711a.48959.48959,0,0,1,.02574.05148.60971.60971,0,0,1,.03925.12793.397.397,0,0,1-.031.273.17275.17275,0,0,1-.10585.09163A.02931.02931,0,0,1,3.17584,1.095c.013-.01434.02769-.0257.04175-.03886L3.221,1.05284l.0019-.002.00865-.01.01556-.02153.00491-.008.00526-.01008L3.2681.97682a.24381.24381,0,0,0,.01471-.057A.54251.54251,0,0,0,3.257.68195C3.24482.64313,3.22757.60626,3.2138.56811,3.16635.54752,3.11768.52991,3.06935.51133c-.016-.00615-.03175-.01221-.0482-.01711C3.00244.48865,3.01019.45728,3.02946.46074Z"/><path d="M3.00725,1.10033A.06111.06111,0,0,1,3.03031,1.08L3.03887,1.076c.00209-.001.00978-.0059.00429-.00217l.01656-.01206L3.068,1.05438l.0009-.00086.0026-.00275a.26447.26447,0,0,0,.02571-.0334l.006-.0097L3.1044,1.0059l.00082-.00156L3.11533.98385a.47364.47364,0,0,0,.04173-.191A.37822.37822,0,0,0,3.1406.6815C3.13537.664,3.16016.652,3.16746.66991a.49364.49364,0,0,1,.0368.22.36385.36385,0,0,1-.07211.20058.21044.21044,0,0,1-.0414.039.16723.16723,0,0,1-.0285.01651.05433.05433,0,0,1-.04205.00051A.03047.03047,0,0,1,3.00725,1.10033Z"/><path d="M3.44022,1.21153a.17372.17372,0,0,1,.04009-.02178l.00811-.00414.00106-.0006.005-.0031.01726-.0127.00693-.0061.00365-.00349L3.52286,1.159l.01308-.01548.01256-.01789.00867-.0149a.27294.27294,0,0,0,.02589-.0936A.44224.44224,0,0,0,3.58373.90671a.01337.01337,0,0,1,.02642-.004.94334.94334,0,0,1,.01648.12317.28674.28674,0,0,1-.01923.11153.22419.22419,0,0,1-.05938.08324.10709.10709,0,0,1-.10181.0325A.02447.02447,0,0,1,3.44022,1.21153Z"/><path d="M3.63573,1.19324a.20171.20171,0,0,0,.05445-.05905c.008-.01519.03318-.0054.02507.01a.18091.18091,0,0,1-.06087.07293C3.63821,1.22715,3.62026,1.20584,3.63573,1.19324Z"/><path d="M2.87781.41262,2.87447.411a.07977.07977,0,0,0-.03007-.013A.37354.37354,0,0,0,2.80429.38835C2.77985.384,2.75531.38,2.73067.37689,2.68143.3707,2.6318.36608,2.5822.36421a1.581,1.581,0,0,0-.30084.01934C2.254.38776,2.22673.39241,2.19973.39843c-.02842.00634-.05651.0143-.08506.02-.01612.00323-.01343.02881.0028.02557a1.20086,1.20086,0,0,1,.148-.0154L2.2924.42687,2.29054.4315c-.00858.03768-.02088.07408-.028.1122a1.07967,1.07967,0,0,0-.01558.11383A1.63021,1.63021,0,0,0,2.245.892q.002.03136.00553.06257a.30337.30337,0,0,0,.00465.03319l.00524.01885.00795.01266.00576.00475a.02462.02462,0,0,0,.04171-.00547L2.323,1.00538,2.32467.98882a.22747.22747,0,0,0-.00213-.0316L2.31671.901Q2.31129.84475,2.30947.78824C2.30707.714,2.30809.64011,2.311.5659L2.314.50072a.62806.62806,0,0,1,.0037-.06509.01326.01326,0,0,0-.00225-.01q.04821-.0022.09648-.002l-.00218.0075a.23083.23083,0,0,1-.00628.03014L2.40066.49318C2.39934.51309,2.398.533,2.39724.55292Q2.39481.614,2.39347.675c-.002.08375-.00258.16757-.00276.25135,0,.023-.00058.046-.00006.06891a.33565.33565,0,0,0,.00174.03426.23484.23484,0,0,0,.00938.03758.0238.0238,0,0,0,.04358.00064.22881.22881,0,0,0,.00857-.03058.27774.27774,0,0,0,.00213-.032C2.45672.983,2.45642.96081,2.45629.93859L2.45509.816c-.001-.08236-.0024-.16468-.006-.247q-.00154-.03536-.004-.07062l-.003-.03412A.32169.32169,0,0,1,2.43532.42839L2.43454.42389q.04806.00059.09622.00283A.24733.24733,0,0,0,2.532.48038l.00342.05849c.00238.0397.00433.07946.00488.11924.0011.07925-.00107.15648-.00644.23582L2.52952.96084c-.00149.02383-.00135.04753-.00159.07139A.02362.02362,0,0,0,2.5728,1.039.64977.64977,0,0,0,2.5987.91856c.00455-.04086.00675-.08193.00782-.123A1.4262,1.4262,0,0,0,2.59262.54734C2.5893.5252,2.58542.50325,2.58069.48137A.31286.31286,0,0,0,2.5673.42871q.06763.00419.13477.01236c.02738.00338.05474.00708.082.01139.01364.00216.02722.00451.041.00571l.0206.00208A.20513.20513,0,0,0,2.871.458C2.896.45725,2.89775.422,2.87781.41262Z"/><path d="M2.206,1.03707a.04359.04359,0,0,0,.00128-.012l-.00455-.01484-.01-.02313A.358.358,0,0,1,2.17817.94364L2.17671.937,2.17456.92619l-.004-.02544c-.00218-.01642-.004-.03288-.00539-.04939A1.39952,1.39952,0,0,1,2.16492.64521.77257.77257,0,0,1,2.18108.52644.01354.01354,0,0,0,2.15536.51907a.93693.93693,0,0,0-.05277.21538.7187.7187,0,0,0,.00779.21714.286.286,0,0,0,.01739.05747.20375.20375,0,0,0,.0166.03l.0113.013a.03171.03171,0,0,0,.01384.00663.02476.02476,0,0,0,.03732-.02369C2.20679,1.03478,2.20426,1.04832,2.206,1.03707Z"/><path d="M2.74378.62113C2.74.57731,2.735.53346,2.72872.48992a.01729.01729,0,0,0-.03435.00376,1.86079,1.86079,0,0,1-.0266.45009c-.00335.02038-.007.04069-.00993.06114-.00312.02181-.00488.04369-.0077.06553-.00358.02772.03851.04208.04859.01393A.67885.67885,0,0,0,2.73086.97009C2.7374.932,2.742.89377,2.7452.85531A1.37341,1.37341,0,0,0,2.74378.62113Z"/><path d="M2.89642.60526A.02142.02142,0,0,0,2.873.5865a.02166.02166,0,0,0-.01877.02337,1.70921,1.70921,0,0,1-.00593.2064,1.35623,1.35623,0,0,1-.0428.20087c-.00591.02244.03029.03852.04236.01828A.2771.2771,0,0,0,2.87313.98514.44778.44778,0,0,0,2.88794.92968a.68082.68082,0,0,0,.01234-.1055A2.15131,2.15131,0,0,0,2.89642.60526Z"/><path d="M3.05465.64667C3.054.62526,3.052.60389,3.04936.58263a.236.236,0,0,0-.006-.03346c-.00278-.01-.00788-.019-.01055-.0291A.01358.01358,0,0,0,3.0069.523c-.00049.01057-.004.02037-.005.03087-.001.01122-.00082.02278-.001.034L2.99911.6455C2.99769.6863,2.99427.72717,2.989.76765s-.01282.081-.022.12088a.97324.97324,0,0,0-.02663.12125.02638.02638,0,0,0,.01517.02737.02569.02569,0,0,0,.03032-.00773.39615.39615,0,0,0,.04549-.127A1.02119,1.02119,0,0,0,3.0506.777,1.07826,1.07826,0,0,0,3.05465.64667Z"/><path d="M2.04082.91638C2.03046.86842,2.02337.819,2.01753.77024a.99716.99716,0,0,1-.0067-.14805C2.01134.60495,1.98518.60009,1.98366.61805a1.15745,1.15745,0,0,0-.00284.152.688.688,0,0,0,.00658.0748c.004.0254.0101.0506.01605.07561a.01942.01942,0,0,0,.02073.01664A.01894.01894,0,0,0,2.04082.91638Z"/><text x="0" y="20" fill="#000000" font-size="5px" font-weight="bold" font-family="'Helvetica Neue', Helvetica, Arial-Unicode, Arial, Sans-serif">Created by Alice Noir</text><text x="0" y="25" fill="#000000" font-size="5px" font-weight="bold" font-family="'Helvetica Neue', Helvetica, Arial-Unicode, Arial, Sans-serif">from the Noun Project</text></svg>