<svg xmlns="http://www.w3.org/2000/svg" xmlns:xlink="http://www.w3.org/1999/xlink" version="1.1" x="0px" y="0px" viewBox="0 0 100 125" enable-background="new 0 0 100 100" xml:space="preserve"><g><path d="M57.676,63.298c0.557-0.321,0.868-0.83,1.096-1.201c0.075-0.124,0.19-0.312,0.23-0.351c0.063-0.04,0.274-0.104,0.415-0.145   c0.417-0.124,0.986-0.294,1.437-0.745c0.453-0.452,0.623-1.022,0.747-1.438c0.041-0.14,0.104-0.353,0.134-0.4   c0.05-0.055,0.237-0.169,0.361-0.245c0.371-0.228,0.88-0.538,1.202-1.096c0.317-0.552,0.334-1.143,0.346-1.574   c0.005-0.148,0.011-0.371,0.027-0.428c0.034-0.065,0.185-0.224,0.283-0.328c0.301-0.317,0.712-0.752,0.876-1.37   c0.166-0.616,0.028-1.193-0.073-1.615c-0.034-0.145-0.087-0.362-0.086-0.416c0.017-0.071,0.12-0.262,0.188-0.389   c0.208-0.384,0.492-0.91,0.492-1.557c0-0.647-0.285-1.173-0.492-1.557c-0.068-0.126-0.172-0.316-0.186-0.367   c-0.004-0.075,0.049-0.294,0.084-0.439c0.101-0.421,0.239-0.998,0.074-1.61c-0.166-0.623-0.576-1.056-0.876-1.373   c-0.1-0.104-0.249-0.263-0.278-0.314c-0.022-0.071-0.029-0.295-0.033-0.443c-0.013-0.432-0.029-1.023-0.348-1.576   c-0.321-0.555-0.829-0.866-1.199-1.093c-0.124-0.076-0.313-0.191-0.352-0.232c-0.04-0.063-0.104-0.275-0.146-0.416   c-0.123-0.415-0.293-0.984-0.744-1.436c-0.452-0.453-1.021-0.622-1.438-0.746c-0.141-0.042-0.354-0.105-0.401-0.134   c-0.055-0.05-0.17-0.238-0.246-0.362c-0.227-0.371-0.537-0.877-1.093-1.2c-0.553-0.319-1.146-0.336-1.578-0.348   c-0.147-0.004-0.371-0.011-0.426-0.027c-0.065-0.034-0.224-0.185-0.329-0.285c-0.316-0.299-0.749-0.709-1.373-0.877   c-0.532-0.142-1.149-0.035-1.607,0.075c-0.154,0.037-0.348,0.083-0.423,0.085c-0.07-0.017-0.261-0.12-0.387-0.188   c-0.384-0.208-0.91-0.492-1.556-0.492c-0.646,0-1.172,0.285-1.555,0.492c-0.126,0.068-0.316,0.171-0.375,0.186   c-0.087,0-0.28-0.046-0.436-0.083c-0.458-0.11-1.076-0.216-1.609-0.074c-0.622,0.167-1.055,0.577-1.371,0.876   c-0.105,0.1-0.264,0.25-0.312,0.277c-0.071,0.023-0.294,0.029-0.442,0.033c-0.433,0.012-1.026,0.029-1.579,0.349   c-0.555,0.321-0.866,0.829-1.093,1.199c-0.076,0.125-0.192,0.313-0.23,0.351c-0.063,0.04-0.275,0.104-0.416,0.146   c-0.416,0.124-0.985,0.293-1.438,0.746c-0.452,0.452-0.621,1.021-0.745,1.436c-0.042,0.141-0.105,0.353-0.134,0.401   c-0.05,0.054-0.238,0.169-0.362,0.246c-0.371,0.227-0.878,0.538-1.199,1.092c-0.32,0.552-0.337,1.146-0.349,1.579   c-0.004,0.147-0.01,0.371-0.026,0.425c-0.034,0.065-0.185,0.224-0.285,0.329c-0.299,0.316-0.71,0.749-0.877,1.373   c-0.163,0.613-0.026,1.188,0.075,1.607c0.035,0.145,0.087,0.365,0.085,0.424c-0.016,0.07-0.119,0.26-0.188,0.386   c-0.208,0.384-0.492,0.909-0.492,1.556c0,0.646,0.284,1.172,0.492,1.556c0.068,0.126,0.171,0.316,0.185,0.371   c0.004,0.075-0.048,0.294-0.083,0.438c-0.101,0.419-0.238,0.994-0.074,1.608c0.167,0.622,0.577,1.056,0.876,1.371   c0.1,0.105,0.25,0.265,0.277,0.313c0.023,0.071,0.029,0.294,0.033,0.441c0.012,0.433,0.029,1.026,0.348,1.578   c0.321,0.556,0.829,0.867,1.2,1.095c0.124,0.076,0.312,0.191,0.351,0.23c0.04,0.063,0.103,0.275,0.145,0.416   c0.124,0.415,0.293,0.985,0.746,1.437c0.452,0.452,1.021,0.622,1.437,0.745c0.14,0.042,0.352,0.105,0.402,0.135   c0.054,0.051,0.169,0.238,0.245,0.362c0.227,0.371,0.538,0.879,1.095,1.201c0.551,0.317,1.143,0.334,1.575,0.346   c0.147,0.005,0.371,0.011,0.428,0.027c0.065,0.034,0.224,0.185,0.329,0.284c0.317,0.3,0.75,0.711,1.368,0.875   c0.534,0.145,1.155,0.038,1.616-0.073c0.155-0.037,0.348-0.083,0.418-0.086c0.071,0.017,0.261,0.12,0.387,0.188   c0.384,0.208,0.91,0.493,1.557,0.493c0.646,0,1.173-0.284,1.557-0.492c0.127-0.068,0.317-0.172,0.371-0.186   c0.087,0,0.279,0.046,0.435,0.083c0.46,0.111,1.086,0.217,1.609,0.075c0.623-0.166,1.057-0.576,1.374-0.877   c0.104-0.1,0.264-0.25,0.313-0.277c0.071-0.022,0.295-0.029,0.442-0.033C56.533,63.632,57.124,63.615,57.676,63.298z    M54.708,61.366c-0.469,0.194-0.809,0.516-1.082,0.774c-0.107,0.102-0.27,0.255-0.256,0.268c-0.082,0-0.272-0.045-0.425-0.082   c-0.363-0.086-0.846-0.194-1.339-0.132c-0.5,0.066-0.91,0.288-1.239,0.466c-0.113,0.062-0.277,0.15-0.367,0.183   c-0.09-0.032-0.253-0.121-0.367-0.183c-0.329-0.178-0.738-0.399-1.243-0.466c-0.104-0.014-0.21-0.021-0.318-0.021   c-0.382,0-0.734,0.084-1.017,0.152c-0.153,0.036-0.343,0.082-0.348,0.103c-0.066-0.034-0.228-0.188-0.334-0.289   c-0.273-0.258-0.612-0.579-1.079-0.773c-0.476-0.197-0.948-0.211-1.327-0.222c-0.144-0.002-0.365-0.01-0.359,0.012   c-0.055-0.05-0.171-0.239-0.248-0.364c-0.197-0.322-0.443-0.724-0.847-1.033c-0.406-0.313-0.856-0.447-1.219-0.555   c-0.14-0.041-0.353-0.11-0.354-0.085c-0.04-0.063-0.103-0.274-0.145-0.415c-0.108-0.362-0.242-0.813-0.555-1.22   c-0.311-0.403-0.709-0.647-1.03-0.845c-0.125-0.077-0.315-0.187-0.324-0.175c-0.022-0.07-0.028-0.29-0.032-0.436   c-0.01-0.379-0.023-0.849-0.221-1.324c-0.195-0.468-0.516-0.807-0.774-1.079c-0.102-0.108-0.259-0.267-0.268-0.252   c-0.003-0.073,0.048-0.286,0.082-0.427c0.089-0.369,0.199-0.829,0.132-1.338c-0.065-0.502-0.288-0.913-0.466-1.244   c-0.071-0.131-0.178-0.329-0.194-0.329c0.016-0.074,0.123-0.271,0.194-0.402c0.179-0.33,0.401-0.741,0.466-1.241   c0.067-0.512-0.042-0.972-0.131-1.342c-0.033-0.14-0.076-0.349-0.104-0.342c0.035-0.067,0.188-0.229,0.29-0.336   c0.258-0.273,0.58-0.612,0.774-1.082c0.197-0.474,0.21-0.944,0.221-1.322c0.004-0.148-0.014-0.364-0.01-0.362   c0.05-0.055,0.239-0.171,0.365-0.248c0.322-0.197,0.722-0.442,1.033-0.847c0.312-0.406,0.446-0.856,0.554-1.218   c0.042-0.14,0.105-0.353,0.084-0.354c0.063-0.04,0.275-0.103,0.416-0.145c0.362-0.108,0.812-0.242,1.22-0.554   c0.403-0.311,0.648-0.711,0.845-1.032c0.077-0.125,0.193-0.315,0.173-0.323c0.071-0.022,0.291-0.028,0.437-0.032   c0.378-0.01,0.849-0.023,1.323-0.22c0.469-0.195,0.808-0.516,1.081-0.774c0.107-0.102,0.269-0.255,0.253-0.268   c0.082,0,0.272,0.045,0.424,0.082c0.364,0.087,0.87,0.194,1.339,0.132c0.503-0.065,0.914-0.288,1.244-0.467   c0.131-0.071,0.328-0.178,0.328-0.193c0.074,0.016,0.272,0.123,0.403,0.194c0.331,0.179,0.742,0.401,1.242,0.466   c0.478,0.064,0.978-0.044,1.34-0.131c0.152-0.036,0.343-0.082,0.343-0.104c0.066,0.034,0.229,0.188,0.337,0.29   c0.272,0.258,0.611,0.58,1.081,0.774c0.474,0.196,0.943,0.209,1.321,0.22c0.146,0.004,0.367,0.01,0.363-0.01   c0.055,0.05,0.171,0.24,0.247,0.365c0.197,0.322,0.442,0.722,0.847,1.034c0.406,0.312,0.857,0.446,1.219,0.554   c0.14,0.042,0.348,0.104,0.355,0.084c0.039,0.063,0.103,0.274,0.145,0.415c0.107,0.362,0.242,0.813,0.554,1.218   c0.311,0.405,0.711,0.65,1.033,0.847c0.122,0.075,0.308,0.205,0.321,0.172c0.021,0.07,0.028,0.291,0.032,0.436   c0.011,0.379,0.024,0.852,0.221,1.323c0.194,0.47,0.516,0.81,0.774,1.083c0.101,0.106,0.278,0.276,0.268,0.253   c0.003,0.073-0.048,0.286-0.082,0.427c-0.088,0.369-0.198,0.827-0.132,1.34c0.066,0.501,0.288,0.911,0.466,1.24   c0.071,0.131,0.179,0.329,0.194,0.329c-0.016,0.074-0.123,0.273-0.194,0.404c-0.178,0.329-0.399,0.739-0.466,1.243   c-0.066,0.509,0.043,0.966,0.132,1.334c0.033,0.139,0.083,0.348,0.102,0.348c-0.034,0.066-0.187,0.229-0.288,0.335   c-0.259,0.273-0.579,0.612-0.773,1.079c-0.197,0.476-0.211,0.947-0.222,1.327c-0.004,0.144-0.01,0.358,0.012,0.358c0,0,0,0,0.001,0   c-0.051,0.056-0.24,0.171-0.366,0.248c-0.321,0.197-0.723,0.442-1.032,0.846c-0.313,0.406-0.447,0.857-0.555,1.22   c-0.042,0.141-0.104,0.353-0.085,0.355c-0.063,0.04-0.274,0.103-0.415,0.145c-0.361,0.107-0.813,0.242-1.219,0.554   c-0.404,0.311-0.649,0.71-0.846,1.032c-0.077,0.125-0.193,0.314-0.174,0.322c-0.07,0.021-0.29,0.028-0.436,0.032   C55.652,61.156,55.182,61.169,54.708,61.366z"/><rect x="48.75" y="5.959" width="2.5" height="23.957"/><rect x="48.75" y="70.084" width="2.5" height="23.957"/><rect x="70.084" y="48.75" width="23.957" height="2.5"/><rect x="5.959" y="48.75" width="23.957" height="2.5"/><rect x="60.693" y="71.421" transform="matrix(-0.7071 -0.7071 0.7071 -0.7071 72.6721 175.4426)" width="23.957" height="2.5"/><rect x="15.35" y="26.078" transform="matrix(0.7071 0.7071 -0.7071 0.7071 27.3283 -11.32)" width="23.957" height="2.5"/><rect x="15.351" y="71.421" transform="matrix(0.7071 -0.7071 0.7071 0.7071 -43.3815 40.6108)" width="23.957" height="2.5"/><rect x="60.693" y="26.078" transform="matrix(-0.7071 0.7071 -0.7071 -0.7071 143.3817 -4.7344)" width="23.957" height="2.5"/><rect x="59.216" y="13.349" transform="matrix(0.9283 0.3719 -0.3719 0.9283 13.2142 -20.7767)" width="2.5" height="21.034"/><rect x="38.284" y="65.616" transform="matrix(-0.9283 -0.3718 0.3718 -0.9283 47.9292 161.5087)" width="2.501" height="21.035"/><rect x="65.616" y="59.216" transform="matrix(-0.9283 -0.3717 0.3717 -0.9283 124.3347 144.8992)" width="21.035" height="2.5"/><rect x="13.349" y="38.284" transform="matrix(0.9283 0.3717 -0.3717 0.9283 16.4071 -6.0388)" width="21.034" height="2.501"/><rect x="50.562" y="74.629" transform="matrix(-0.3935 -0.9193 0.9193 -0.3935 15.3612 161.8914)" width="21.035" height="2.501"/><rect x="28.404" y="22.871" transform="matrix(0.3936 0.9193 -0.9193 0.3936 45.7764 -21.1526)" width="21.035" height="2.5"/><rect x="13.605" y="59.828" transform="matrix(0.9193 -0.3936 0.3936 0.9193 -22.0915 14.4226)" width="21.034" height="2.501"/><rect x="65.362" y="37.671" transform="matrix(-0.9193 0.3936 -0.3936 -0.9193 160.9538 44.8368)" width="21.036" height="2.5"/></g></svg>