<svg xmlns="http://www.w3.org/2000/svg" xmlns:xlink="http://www.w3.org/1999/xlink" version="1.1" x="0px" y="0px" viewBox="0 0 95.454 157.5" style="enable-background:new 0 0 95.454 126;" xml:space="preserve"><g><path d="M92.234,70.296c2.256-2.152,3.365-4.789,3.205-7.624c-0.086-1.537-0.867-2.925-2.143-3.807   c-1.299-0.899-2.905-1.143-4.41-0.671c-5.558,1.745-15.578,4.383-28.242,5.561c0.189-9.534,2.839-17.788,7.524-23.326   c0.008-0.009,0.01-0.021,0.017-0.031c0.008-0.01,0.02-0.013,0.027-0.023c3.204-4.371,4.898-9.555,4.898-14.992   C73.11,11.387,61.723,0,47.727,0S22.344,11.387,22.344,25.383c0,5.437,1.694,10.622,4.898,14.992   c0.008,0.011,0.02,0.016,0.029,0.026c0.007,0.008,0.008,0.019,0.015,0.028c4.684,5.538,7.334,13.792,7.524,23.326   c-12.664-1.178-22.684-3.816-28.242-5.561c-1.504-0.472-3.111-0.228-4.41,0.671c-1.275,0.882-2.057,2.27-2.143,3.807   c-0.16,2.835,0.949,5.472,3.205,7.624c3.742,3.57,11.306,5.179,16.992,5.9c2.045,0.26,3.949,1.151,5.484,2.509   c-4.155,5.153-6.437,11.587-6.437,18.232C19.26,112.962,32.297,126,48.323,126s29.063-13.038,29.063-29.063   c0-6.924-2.452-13.561-6.917-18.813c1.397-1.031,3.035-1.708,4.774-1.928C80.928,75.476,88.492,73.867,92.234,70.296z    M28.843,39.173c-2.942-4.021-4.499-8.789-4.499-13.79C24.344,12.49,34.834,2,47.727,2S71.11,12.49,71.11,25.383   c0,5.001-1.556,9.769-4.499,13.79c-4.996,5.929-7.807,14.69-7.97,24.751c-3.469,0.273-7.112,0.439-10.914,0.439   c-3.802,0-7.445-0.166-10.914-0.439C36.65,53.864,33.839,45.102,28.843,39.173z M48.323,124c-14.922,0-27.062-12.14-27.062-27.063   c0-6.088,2.076-11.974,5.826-16.733c0.089,0.117,0.187,0.228,0.271,0.349l2.32,3.334c-2.766,3.814-4.239,8.303-4.239,13.049   c0,12.291,9.999,22.29,22.289,22.29s22.289-9.999,22.289-22.29c0-4.746-1.474-9.236-4.239-13.049l2.319-3.334   c0.27-0.388,0.572-0.746,0.888-1.09c4.133,4.882,6.401,11.045,6.401,17.473C75.385,111.86,63.245,124,48.323,124z M36.811,88.266   l1.147,2.665c0.748,1.739,2.455,2.863,4.349,2.863h10.842c1.894,0,3.601-1.124,4.349-2.863l1.147-2.666   c0.989-0.218,1.862-0.445,2.593-0.662c1.259-0.373,2.386-1.094,3.274-2.049c2.29,3.362,3.505,7.267,3.505,11.382   c0,11.188-9.102,20.29-20.289,20.29s-20.289-9.102-20.289-20.29c0-4.116,1.216-8.021,3.505-11.383   c0.888,0.955,2.015,1.676,3.274,2.049C34.949,87.821,35.821,88.049,36.811,88.266z M39.182,88.715   c2.36,0.385,5.207,0.669,8.545,0.669s6.185-0.284,8.545-0.669l-0.614,1.426c-0.432,1.004-1.417,1.653-2.511,1.653H42.306   c-1.094,0-2.079-0.649-2.511-1.653L39.182,88.715z M68.413,77.226c-0.018,0.014-0.04,0.019-0.057,0.035   c-0.012,0.011-0.016,0.026-0.027,0.037c-0.695,0.628-1.329,1.331-1.875,2.114l-2.931,4.212c-0.687,0.988-1.701,1.721-2.855,2.063   c-2.611,0.774-6.977,1.697-12.941,1.697s-10.33-0.923-12.941-1.697c-1.154-0.343-2.169-1.076-2.855-2.064l-2.932-4.211   c-0.365-0.524-0.778-1.004-1.213-1.46c-0.026-0.028-0.04-0.064-0.07-0.09c-0.011-0.009-0.025-0.011-0.036-0.02   c-1.931-1.979-4.466-3.281-7.216-3.63c-4.411-0.559-12.338-2-15.863-5.363c-1.846-1.76-2.717-3.8-2.59-6.064   c0.052-0.917,0.52-1.746,1.284-2.275c0.524-0.363,1.132-0.55,1.748-0.55c0.309,0,0.62,0.047,0.925,0.143   c5.815,1.826,16.445,4.609,29.854,5.745c0.002,0,0.004,0.001,0.007,0.001c0.001,0,0.002-0.001,0.003-0.001   c3.765,0.319,7.736,0.515,11.896,0.515s8.131-0.196,11.896-0.515c0.001,0,0.002,0.001,0.003,0.001c0.002,0,0.004-0.001,0.007-0.001   c13.409-1.137,24.039-3.92,29.854-5.745c0.91-0.287,1.886-0.137,2.673,0.407c0.765,0.529,1.232,1.358,1.284,2.275   c0.127,2.264-0.744,4.304-2.59,6.064c-3.525,3.363-11.452,4.804-15.863,5.363C72.535,74.524,70.251,75.595,68.413,77.226z"/><path d="M34.288,37.367c-0.458,0.309-0.579,0.93-0.271,1.388c1.529,2.271,2.967,4.757,3.127,7.548   c0.03,0.532,0.471,0.943,0.997,0.943c0.02,0,0.039,0,0.059-0.001c0.551-0.032,0.973-0.504,0.94-1.056   c-0.188-3.281-1.856-6.164-3.465-8.551C35.368,37.181,34.744,37.06,34.288,37.367z"/><path d="M29.683,26.328c-0.604-6.357,1.518-8.338,1.589-8.402c0.422-0.343,0.492-0.962,0.155-1.392   c-0.341-0.434-0.968-0.511-1.404-0.17c-0.313,0.246-3.047,2.623-2.33,10.153c0.284,2.995,1.767,5.58,3.179,7.714   c0.192,0.291,0.511,0.448,0.835,0.448c0.189,0,0.381-0.054,0.551-0.166c0.461-0.305,0.587-0.925,0.282-1.386   C31.264,31.2,29.926,28.884,29.683,26.328z"/></g><text x="0" y="141" fill="#000000" font-size="5px" font-weight="bold" font-family="'Helvetica Neue', Helvetica, Arial-Unicode, Arial, Sans-serif">Created by Amethyst Studio</text><text x="0" y="146" fill="#000000" font-size="5px" font-weight="bold" font-family="'Helvetica Neue', Helvetica, Arial-Unicode, Arial, Sans-serif">from the Noun Project</text></svg>