<svg xmlns="http://www.w3.org/2000/svg" xmlns:xlink="http://www.w3.org/1999/xlink" version="1.1" x="0px" y="0px" viewBox="0 0 64 80" style="enable-background:new 0 0 64 64;" xml:space="preserve"><g><path d="M24.43,21.48c-0.97,1.659-2.729,2.68-4.68,2.68c-2.14,0-4.08-1.26-4.95-3.2c-0.31-0.69-0.47-1.43-0.47-2.22   c0-2.99,2.43-5.41,5.42-5.41c1.11,0,2.16,0.32,3.07,0.96c-0.32,0.76-0.49,1.58-0.49,2.45C22.33,18.62,23.14,20.31,24.43,21.48z"/><path d="M34.17,16.74c0,2.99-2.43,5.42-5.42,5.42s-5.42-2.43-5.42-5.42s2.43-5.42,5.42-5.42S34.17,13.75,34.17,16.74z"/><path d="M45,13.53c0,1.58-1.29,2.87-2.88,2.87c-1.58,0-2.87-1.29-2.87-2.87c0-1.59,1.29-2.88,2.87-2.88   C43.71,10.65,45,11.94,45,13.53z"/><path d="M46.33,24.4c0,2.71-2.2,4.92-4.91,4.92s-4.92-2.21-4.92-4.92s2.21-4.92,4.92-4.92S46.33,21.69,46.33,24.4z"/><path d="M52.11,8.25c0,1.05-0.86,1.9-1.9,1.9c-1.05,0-1.9-0.851-1.9-1.9c0-1.04,0.851-1.89,1.9-1.89   C51.25,6.36,52.11,7.21,52.11,8.25z"/><path d="M55.67,16.19c0,0.869-0.71,1.579-1.59,1.579c-0.87,0-1.58-0.71-1.58-1.579c0-0.87,0.71-1.58,1.58-1.58   C54.96,14.61,55.67,15.32,55.67,16.19z"/><path d="M52.81,29.21v20.88H11.19V29.21H24.42c0.021,2.78,2.29,5.04,5.08,5.04s5.06-2.26,5.08-5.04h3.4   c0.97,0.7,2.159,1.11,3.439,1.11s2.46-0.41,3.43-1.11H52.81z"/><path d="M59.5,28.95V50.35c0,4.021-3.27,7.29-7.28,7.29H11.78c-4.011,0-7.28-3.27-7.28-7.29V28.95c0-4.021,3.27-7.29,7.28-7.29   h2.26c1.08,2.14,3.29,3.5,5.71,3.5c2.26,0,4.31-1.16,5.47-3.061c1.021,0.67,2.23,1.061,3.53,1.061c1.56,0,2.99-0.561,4.11-1.5h3.31   c-0.43,0.82-0.67,1.75-0.67,2.74c0,1.449,0.52,2.779,1.4,3.81h-2.41c-0.45-2.35-2.521-4.13-4.99-4.13s-4.54,1.78-4.99,4.13H10.69   c-0.28,0-0.5,0.22-0.5,0.5v21.88c0,0.28,0.22,0.5,0.5,0.5H53.31c0.28,0,0.5-0.22,0.5-0.5V28.71c0-0.28-0.22-0.5-0.5-0.5h-7.38   c0.88-1.03,1.4-2.36,1.4-3.81c0-0.99-0.24-1.92-0.67-2.74h5.56C56.23,21.66,59.5,24.93,59.5,28.95z"/><path d="M33.58,29.17c0,2.25-1.83,4.08-4.08,4.08s-4.08-1.83-4.08-4.08s1.83-4.09,4.08-4.09S33.58,26.92,33.58,29.17z"/></g>
</svg>