<svg xmlns="http://www.w3.org/2000/svg" data-name="Layer 1" viewBox="0 0 100 125" x="0px" y="0px"><title>beauty</title><path d="M60.38751,22.256c0-7.10895-5.48614-13.507-8.48449-16.47284a2.70361,2.70361,0,0,0-3.806,0C45.09869,8.749,39.61249,15.14709,39.61249,22.256v5.77783h20.775Z"/><path d="M63.64264,66.59167H36.35748A1.68246,1.68246,0,0,0,34.675,68.27411V91.39575A3.60421,3.60421,0,0,0,38.27924,95H61.72076A3.60429,3.60429,0,0,0,65.325,91.39575V68.27411A1.68236,1.68236,0,0,0,63.64264,66.59167ZM45.075,88.98334a1.31252,1.31252,0,0,1-1.3125,1.3125h-1.375a1.31253,1.31253,0,0,1-1.3125-1.3125v-16.375a1.31252,1.31252,0,0,1,1.3125-1.3125h1.375a1.31252,1.31252,0,0,1,1.3125,1.3125Z"/><path d="M61.92853,32.34064a1.07334,1.07334,0,0,0-1.07337-1.07343H39.14484a1.07352,1.07352,0,0,0-1.07349,1.07343V62.45056H61.92853ZM47.325,56.67261a1.25475,1.25475,0,0,1-1.25476,1.25476H44.57977A1.25475,1.25475,0,0,1,43.325,56.67261V37.04523a1.25475,1.25475,0,0,1,1.25476-1.25476h1.49048A1.25475,1.25475,0,0,1,47.325,37.04523Z"/>
</svg>