<svg xmlns="http://www.w3.org/2000/svg" xmlns:xlink="http://www.w3.org/1999/xlink" version="1.1" x="0px" y="0px" viewBox="0 0 100 125" style="enable-background:new 0 0 100 100;" xml:space="preserve"><g><path d="M5.264,71.997c0,10.855,8.832,19.688,19.688,19.688c10.854,0,19.687-8.832,19.687-19.688   c0-10.854-8.832-19.687-19.687-19.687C14.096,52.311,5.264,61.143,5.264,71.997z M24.951,57.933c7.755,0,14.064,6.31,14.064,14.064   s-6.309,14.065-14.064,14.065s-14.065-6.311-14.065-14.065S17.196,57.933,24.951,57.933z M51.973,85.999   c0,7.72,6.281,14.001,14.002,14.001c7.72,0,14-6.281,14-14.001c0-7.722-6.28-14.002-14-14.002   C58.254,71.997,51.973,78.277,51.973,85.999z M75.288,85.999c0,5.135-4.179,9.313-9.313,9.313c-5.137,0-9.314-4.179-9.314-9.313   c0-5.137,4.178-9.314,9.314-9.314C71.109,76.685,75.288,80.862,75.288,85.999z M28.486,14.703c0,0-3.535-6.451-3.535-10.482   C24.951,1.89,26.534,0,28.486,0s3.535,1.89,3.535,4.221C32.021,8.157,28.486,14.703,28.486,14.703z M24.951,35.48   c0-3.937,3.535-10.482,3.535-10.482s3.535,6.451,3.535,10.482c0,2.332-1.583,4.222-3.535,4.222S24.951,37.812,24.951,35.48z    M8.634,19.851c0-1.952,1.89-3.535,4.221-3.535c3.937,0,10.482,3.535,10.482,3.535s-6.451,3.535-10.482,3.535   C10.524,23.386,8.634,21.803,8.634,19.851z M44.116,23.386c-3.937,0-10.482-3.535-10.482-3.535s6.451-3.535,10.482-3.535   c2.331,0,4.221,1.583,4.221,3.535S46.447,23.386,44.116,23.386z M80.707,15.176c0,0-2.497-4.559-2.497-7.407   c0-1.648,1.118-2.983,2.497-2.983c1.381,0,2.5,1.335,2.5,2.983C83.207,10.55,80.707,15.176,80.707,15.176z M78.21,29.859   c0-2.781,2.497-7.407,2.497-7.407s2.5,4.559,2.5,7.407c0,1.647-1.119,2.983-2.5,2.983C79.328,32.843,78.21,31.507,78.21,29.859z    M66.679,18.814c0-1.38,1.335-2.499,2.983-2.499c2.781,0,7.408,2.499,7.408,2.499s-4.559,2.498-7.408,2.498   C68.014,21.312,66.679,20.193,66.679,18.814z M91.754,21.312c-2.782,0-7.408-2.498-7.408-2.498s4.559-2.499,7.408-2.499   c1.646,0,2.982,1.118,2.982,2.499C94.736,20.193,93.4,21.312,91.754,21.312z M17.192,72.044l-2.386-0.094   c0.234-5.927,5.033-8.66,5.237-8.773l1.164,2.084C21.051,65.35,17.372,67.485,17.192,72.044z M62.517,80.233l0.646,1.158   c-0.087,0.05-2.132,1.237-2.233,3.773l-1.326-0.053C59.733,81.815,62.403,80.295,62.517,80.233z M47.382,48.266   c0,7.72,6.282,14.001,14.002,14.001s14.001-6.281,14.001-14.001c0-7.721-6.281-14.001-14.001-14.001S47.382,40.545,47.382,48.266z    M70.697,48.266c0,5.135-4.178,9.314-9.313,9.314c-5.137,0-9.315-4.18-9.315-9.314c0-5.137,4.179-9.314,9.315-9.314   C66.52,38.951,70.697,43.129,70.697,48.266z M57.926,42.5l0.646,1.159c-0.086,0.05-2.132,1.237-2.232,3.773l-1.326-0.053   C55.144,44.082,57.813,42.563,57.926,42.5z"/></g></svg>