<svg xmlns="http://www.w3.org/2000/svg" xmlns:xlink="http://www.w3.org/1999/xlink" version="1.1" x="0px" y="0px" viewBox="0 0 80 100" style="enable-background:new 0 0 80 80;" xml:space="preserve"><g><path d="M54,63.89V40c0-4.62-2.03-6.24-3.98-7.81c-0.38-0.3-0.76-0.6-1.12-0.93c-1.31-1.1801-1.72-2.8-1.84-3.66   c-0.61,0.29-1.26,0.52-1.92,0.7c-1.63,0.48-3.39,0.72-5.14,0.72s-3.51-0.24-5.14-0.72c-0.66-0.18-1.31-0.41-1.92-0.7   c-0.12,0.86-0.53,2.48-1.83,3.66c-0.37,0.33-0.75,0.64-1.13,0.94C28.02,33.77,26,35.39,26,40v23.89c-0.06,0.37,0.01,0.87,0.35,1.36   c1.25,1.79,5.57,2.69,13.22,2.75h0.81c7.68-0.06,12.02-0.96,13.27-2.76C53.99,64.76,54.06,64.26,54,63.89z M48,61   c0,0.55-0.45,1-1,1H33c-0.55,0-1-0.45-1-1V39c0-0.55,0.45-1,1-1h14c0.55,0,1,0.45,1,1V61z"/><path d="M45,20.25c0.71-0.23,1.38-0.51,2-0.85V15c0-2.2-1.93-3-3.23-3h-7.55C34.93,12,33,12.8,33,15v4.4   c0.62,0.34,1.29,0.62,2,0.85C38.11,21.26,41.89,21.26,45,20.25z"/><path d="M45,26.25c0.71-0.23,1.38-0.51,2-0.85v-3.77c-0.64,0.29-1.31,0.53-2,0.71c-1.59,0.46-3.3,0.68-5,0.68s-3.41-0.22-5-0.68   c-0.69-0.18-1.36-0.42-2-0.71v3.77c0.62,0.34,1.29,0.62,2,0.85C38.11,27.26,41.89,27.26,45,26.25z"/><rect x="34" y="40" width="12" height="20"/></g></svg>