<svg id="Layer_1" data-name="Layer 1" xmlns="http://www.w3.org/2000/svg" viewBox="0 0 228.49507 61.8"><defs><style>.cls-1{fill:#717275;}.cls-2{fill:#f4c500;}.cls-3{fill:#5fe09f;}</style></defs><path class="cls-1" d="M65.54513,40.817l19.7974-28.74849v-.17184h-18.019V6.04281H94.523v4.132l-19.50974,28.462V38.866H94.81034v5.85326H65.54513Z" transform="translate(-15.85247 -2.9)"/><path class="cls-1" d="M146.63162,44.71922V28.595L134.41,6.04281h8.03217l4.64818,9.92752c1.31961,2.87,2.29545,5.05007,3.32758,7.68949h.11472c.97583-2.46738,2.06638-4.878,3.38629-7.68949l4.64748-9.92752h7.97776l-12.855,22.37912V44.71922Z" transform="translate(-15.85247 -2.9)"/><path class="cls-1" d="M173.6037,33.75837l-3.32878,10.96085H162.988L175.38231,6.04281h9.00961l12.56732,38.67641h-7.57506l-3.50052-10.96085Zm11.07508-5.33644-3.04181-9.525c-.74567-2.35235-1.377-4.99176-1.95045-7.23h-.11433c-.57423,2.23823-1.14887,4.93475-1.83693,7.23l-2.98429,9.525Z" transform="translate(-15.85247 -2.9)"/><path class="cls-1" d="M71.73926,62.79614a6.6832,6.6832,0,0,1-9.4195-.07595,6.5299,6.5299,0,0,1-1.964-4.77173,6.712,6.712,0,0,1,6.71958-6.71166,6.96634,6.96634,0,0,1,4.66391,1.89594l-.928.90389a5.18759,5.18759,0,0,0-3.73588-1.488,5.42476,5.42476,0,0,0-2.80765.73555,4.96333,4.96333,0,0,0-1.96007,2.11839,5.65814,5.65814,0,0,0-.63987,2.54994,5.2929,5.2929,0,0,0,1.53594,3.88888,5.52682,5.52682,0,0,0,7.60753.05892Z" transform="translate(-15.85247 -2.9)"/><path class="cls-1" d="M84.14647,64.34009h-1.312V56.50851l-4.25571,8.15932-4.14368-8.0474v7.71966h-1.312V51.24141l5.47591,10.897,5.54746-10.89553Z" transform="translate(-15.85247 -2.9)"/><path class="cls-1" d="M93.602,64.34009H85.41038V51.56485H93.602v1.31179H86.72236v4.74387H92.618v1.312H86.72236v4.09559H93.602Z" transform="translate(-15.85247 -2.9)"/><path class="cls-1" d="M105.48623,62.79614a6.68321,6.68321,0,0,1-9.41951-.07595,6.52993,6.52993,0,0,1-1.964-4.77173,6.712,6.712,0,0,1,6.71958-6.71166,6.96634,6.96634,0,0,1,4.66391,1.89594l-.92793.90389a5.18783,5.18783,0,0,0-3.736-1.488,5.42476,5.42476,0,0,0-2.80765.73555,4.96339,4.96339,0,0,0-1.96007,2.11839,5.65814,5.65814,0,0,0-.63987,2.54994,5.29258,5.29258,0,0,0,1.536,3.88888,5.52682,5.52682,0,0,0,7.60753.05892Z" transform="translate(-15.85247 -2.9)"/><path class="cls-1" d="M115.06175,64.34009h-8.19149V51.56485h8.19149v1.31179h-6.87949v4.74387h5.89554v1.312h-5.89554v4.09559h6.87949Z" transform="translate(-15.85247 -2.9)"/><path class="cls-1" d="M124.56522,64.34009h-1.312V58.9325h-5.5675v5.40759h-1.312V51.56485h1.312v6.05566h5.5675V51.56485h1.312Z" transform="translate(-15.85247 -2.9)"/><path class="cls-1" d="M142.63582,64.34009h-1.312V56.50851l-4.25541,8.15932-4.14359-8.0474v7.71966h-1.3121V51.24141l5.47592,10.897,5.54716-10.89553Z" transform="translate(-15.85247 -2.9)"/><path class="cls-1" d="M156.42657,64.34009H155.046l-1.99054-3.8959H146.155l-2.008,3.8959h-1.35126q2.78408-5.23154,6.78359-13.10309Zm-4.0482-5.20779-2.776-5.34677-2.75013,5.34677Z" transform="translate(-15.85247 -2.9)"/><path class="cls-1" d="M163.8825,52.87664H157.987V64.35612h-1.31189V51.56485h7.20744Z" transform="translate(-15.85247 -2.9)"/><path class="cls-1" d="M176.49271,64.34009h-1.38063l-1.99063-3.8959h-6.90033l-2.00806,3.8959h-1.35118q2.784-5.23154,6.7836-13.10309Zm-4.0483-5.20779-2.77588-5.34677L166.9184,59.1323Z" transform="translate(-15.85247 -2.9)"/><path class="cls-1" d="M183.62079,60.57224a3.84715,3.84715,0,0,1-2.048,3.53589,4.0854,4.0854,0,0,1-4.83164-.52l.93575-.936a2.602,2.602,0,0,0,1.84815.70409,2.78181,2.78181,0,1,0,0-5.56359v-1.311a1.8502,1.8502,0,0,0,1.38373-.56752,1.92913,1.92913,0,0,0,.55209-1.39886,1.93936,1.93936,0,0,0-1.968-1.96659,2.23817,2.23817,0,0,0-1.75167,1.008l-1.00007-.81591a3.16038,3.16038,0,0,1,2.75174-1.50387,3.16755,3.16755,0,0,1,3.28,3.27186,3.013,3.013,0,0,1-1.18384,2.5279A3.819,3.819,0,0,1,183.62079,60.57224Z" transform="translate(-15.85247 -2.9)"/><path class="cls-1" d="M190.40449,64.34009h-1.312V56.62043l-4.15972,8.048V51.56485h1.312v7.96964l4.15972-8.29188Z" transform="translate(-15.85247 -2.9)"/><path class="cls-1" d="M199.84424,64.34009h-1.31189V58.9325h-5.5678v5.40759h-1.312V51.56485h1.312v6.05566h5.5678V51.56485h1.31189Z" transform="translate(-15.85247 -2.9)"/><path class="cls-1" d="M192.86375,5.772c1.37632,0,1.8743.68155,1.8743,1.95326v.52423c0,.99627-.275,1.61239-1.206,1.80908.99647.19659,1.37663.93054,1.37663,1.96618v.79958c0,1.32392-.60319,2.1235-2.00567,2.1235h-1.96639V5.772Zm-.3016,4.0506c1.075,0,1.57311-.28847,1.57311-1.45507V7.77764c0-.957-.30159-1.45507-1.28454-1.45507h-1.31078v3.5Zm.34088,4.57464c1.00919,0,1.40248-.56351,1.40248-1.586v-.82574c0-1.19295-.53737-1.61248-1.62552-1.61248h-1.14005v4.02425Z" transform="translate(-15.85247 -2.9)"/><path class="cls-1" d="M199.81057,8.01361v.68154h-.577V7.97433c0-.98324-.38015-1.73032-1.38934-1.73032-1.00959,0-1.38935.74708-1.38935,1.73032v4.77123c0,.98314.37976,1.71739,1.38935,1.71739,1.00919,0,1.38934-.73425,1.38934-1.71739V10.76635h-1.2191v-.55069h1.79614v2.49062c0,1.32411-.577,2.32018-1.97951,2.32018s-1.97941-.99607-1.97941-2.32018V8.01361c0-1.32392.57694-2.32019,1.97941-2.32019S199.81057,6.68969,199.81057,8.01361Z" transform="translate(-15.85247 -2.9)"/><path class="cls-1" d="M132.72354,29.18373c0,9.04848-7.72125,16.32706-17.16291,16.32706-9.44245,0-17.2118-7.27858-17.2118-16.32706V21.46348c0-9.04848,7.819-16.27746,17.261-16.27746,9.49115,0,17.11371,7.229,17.11371,16.27746Zm-6.31116-7.72025c0-5.50788-5.09807-10.36027-10.85175-10.36027-5.80336,0-10.9342,4.90168-10.9342,10.36027v7.72025c0,5.50778,5.13084,10.36007,10.9342,10.36007,5.75368,0,10.85175-4.85229,10.85175-10.36007Z" transform="translate(-15.85247 -2.9)"/><path class="cls-2" d="M219.84042,39.9725q1.80358,1.47986,3.63239,2.92821,2.07438-1.46553,4.13617-2.94874c-.04419-.03211-.08874-.06375-.13292-.09588q-1.84561-1.34213-3.67888-2.70117c-1.36221.91246-2.73739,1.80457-4.11171,2.68943C219.73727,39.88691,219.78856,39.93,219.84042,39.9725Z" transform="translate(-15.85247 -2.9)"/><path class="cls-2" d="M238.62033,39.84435c-1.46049-.94037-2.92186-1.8892-4.36769-2.8617q-2.0127,1.49268-4.03769,2.96873,2.18793,1.57575,4.39277,3.12788,1.94193-1.5369,3.85766-3.10676C238.51724,39.93,238.56853,39.88691,238.62033,39.84435Z" transform="translate(-15.85247 -2.9)"/><path class="cls-2" d="M244.34592,43.75671c.00068-.07619.00149-.15239.00162-.22861q-1.77785-1.14386-3.55569-2.28768-.41168-.26487-.82435-.5299-2.01561,1.66045-4.06054,3.285,2.26133,1.58436,4.5398,3.14395.74752-.64528,1.49481-1.29085Q243.1458,44.805,244.34592,43.75671Z" transform="translate(-15.85247 -2.9)"/><path class="cls-2" d="M229.1529,47.28988q2.1152-1.5919,4.20026-3.22352-2.22912-1.57552-4.44139-3.17453-2.08655,1.508-4.1874,2.99609Q226.92195,45.61065,229.1529,47.28988Z" transform="translate(-15.85247 -2.9)"/><path class="cls-2" d="M244.28957,41.67713a28.16022,28.16022,0,0,0-.56232-4.118q-1.25833,1.0727-2.52878,2.131Q242.74287,40.68541,244.28957,41.67713Z" transform="translate(-15.85247 -2.9)"/><path class="cls-2" d="M218.33831,40.71052q-.41253.265-.82436.5299-1.8529,1.19213-3.70583,2.38426,1.27659,1.11369,2.55611,2.22392.64185.55626,1.2857,1.11026,2.27031-1.55966,4.52451-3.14255Q220.24318,42.27973,218.33831,40.71052Z" transform="translate(-15.85247 -2.9)"/><path class="cls-2" d="M233.94874,52.70288q-2.416-1.72823-4.79584-3.506-2.37972,1.77774-4.79584,3.506,2.39144,2.02964,4.79584,4.04383Q231.55668,54.73175,233.94874,52.70288Z" transform="translate(-15.85247 -2.9)"/><path class="cls-2" d="M227.882,48.2418q-2.24391-1.69566-4.45455-3.43471-2.28144,1.60561-4.58111,3.185,2.15,1.8512,4.311,3.68952Q225.53708,49.98566,227.882,48.2418Z" transform="translate(-15.85247 -2.9)"/><path class="cls-2" d="M225.13748,36.24685q1.881,1.3885,3.77367,2.761,2.0099-1.45782,4.006-2.93442c-1.27528-.87916-2.53421-1.78079-3.76425-2.71691C227.84205,34.35417,226.49882,35.31311,225.13748,36.24685Z" transform="translate(-15.85247 -2.9)"/><path class="cls-2" d="M225.11165,64.45138q-.71478-.58377-1.42162-1.17738-.49779.4103-.99664.81936A19.37689,19.37689,0,0,0,225.11165,64.45138Z" transform="translate(-15.85247 -2.9)"/><path class="cls-2" d="M216.34345,47.8521q-1.05306-.91013-2.10443-1.82223-.88635-.77025-1.77-1.54361-.86154.55435-1.72321,1.10869a24.90223,24.90223,0,0,0-.22946,3.674q.78442.731,1.56808,1.46408Q214.22142,49.30355,216.34345,47.8521Z" transform="translate(-15.85247 -2.9)"/><path class="cls-2" d="M230.84348,60.15145q-.84648-.70457-1.69058-1.41213-.84507.70637-1.69057,1.41213-1.28791,1.07187-2.58014,2.13843,1.36429,1.13931,2.75874,2.24086c.1995-.00388.39869-.00922.59738-.01742.58416-.02412,1.18012-.05458,1.77963-.098q1.52427-1.203,3.01259-2.45116Q231.93638,61.05863,230.84348,60.15145Z" transform="translate(-15.85247 -2.9)"/><path class="cls-2" d="M242.05153,56.44987q.154-.36192.29242-.73035-.29046.26857-.581.53707Q241.90715,56.35342,242.05153,56.44987Z" transform="translate(-15.85247 -2.9)"/><path class="cls-2" d="M211.92534,52.6804q-.39706.26435-.79414.52876a16.60393,16.60393,0,0,0,2.55149,4.99475.82051.82051,0,0,1,.19663-.17846q1.11213-.7291,2.2167-1.46955Q214.001,54.628,211.92534,52.6804Z" transform="translate(-15.85247 -2.9)"/><path class="cls-2" d="M212.58932,42.59186q2.26056-1.44835,4.518-2.9017-1.51827-1.26485-3.01933-2.55011-.78834.61019-1.55865,1.24314a28.37158,28.37158,0,0,0-1.05088,3.27037C211.8348,41.97966,212.21589,42.28823,212.58932,42.59186Z" transform="translate(-15.85247 -2.9)"/><path class="cls-2" d="M214.14766,35.17332c1.174-.88177,2.36834-1.73758,3.56742-2.58544l-.02359-.01784c-.43926-.33492-.89318-.64953-1.29849-1.00628a26.36348,26.36348,0,0,0-2.32909,3.53708Z" transform="translate(-15.85247 -2.9)"/><path class="cls-2" d="M211.10935,43.3032c-.01759.09089-.03663.1815-.05335.27254l.21173-.13585C211.21488,43.39437,211.16227,43.34866,211.10935,43.3032Z" transform="translate(-15.85247 -2.9)"/><path class="cls-2" d="M242.72243,34.11353a21.48026,21.48026,0,0,0-1.2067-2.66283,10.78594,10.78594,0,0,1-1.17612.95955Q241.53589,33.25466,242.72243,34.11353Z" transform="translate(-15.85247 -2.9)"/><path class="cls-2" d="M234.65421,44.98369q-2.1,1.64868-4.2304,3.25811,2.34453,1.7441,4.72464,3.43976,2.05453-1.74916,4.10084-3.508Q236.9439,46.58989,234.65421,44.98369Z" transform="translate(-15.85247 -2.9)"/><path class="cls-2" d="M236.40076,54.43958q-.58512-.40936-1.16744-.82264-2.4387,2.07095-4.8897,4.12725,1.93052,1.61328,3.86946,3.21649c1.7229-1.47531,3.41591-2.98735,5.09219-4.51833Q237.84738,55.44916,236.40076,54.43958Z" transform="translate(-15.85247 -2.9)"/><path class="cls-2" d="M243.57143,51.11479q-1.40118-.94244-2.797-1.89276c-.07451-.05078-.1484-.10236-.22285-.15317q-.9924.85451-1.98611,1.70747-1.06317.91074-2.12959,1.81766,2.00175,1.41,4.028,2.785,1.37647-1.26865,2.74333-2.54694Q243.411,51.97876,243.57143,51.11479Z" transform="translate(-15.85247 -2.9)"/><path class="cls-2" d="M227.96218,57.74419q-2.45152-2.05568-4.88969-4.12725-.58306.41226-1.16745.82264-1.66458,1.16463-3.34639,2.30437c1.69045,1.54112,3.39875,3.06178,5.13775,4.54473Q225.83387,59.52188,227.96218,57.74419Z" transform="translate(-15.85247 -2.9)"/><path class="cls-2" d="M234.85765,28.48781c1.3564,1.01394,2.73995,1.99183,4.12456,2.96637l.04811.03386c.12025-.09163.24094-.18277.36113-.2745a6.044,6.044,0,0,0,1.33344-1.11328,12.10245,12.10245,0,0,0-3.87957-3.66546Q235.8812,27.49336,234.85765,28.48781Z" transform="translate(-15.85247 -2.9)"/><path class="cls-2" d="M240.60239,57.32109c-1.71316,1.56511-3.4428,3.11163-5.20215,4.62211q.57511.47439,1.15147.947a12.0035,12.0035,0,0,0,4.8306-5.04542Q240.99189,57.58371,240.60239,57.32109Z" transform="translate(-15.85247 -2.9)"/><path class="cls-2" d="M234.21838,62.94733q-.67563.569-1.358,1.12971a16.49152,16.49152,0,0,0,1.92889-.4563c.05991-.01831.11832-.03881.17754-.05814Q234.5929,63.25468,234.21838,62.94733Z" transform="translate(-15.85247 -2.9)"/><path class="cls-2" d="M219.74033,50.77633q-1.10006-.94237-2.19686-1.88861c-.21928.15-.43732.30185-.6568.45152q-1.82147,1.24209-3.65341,2.46872,2.07532,1.94193,4.16462,3.87268,2.25038-1.5226,4.472-3.08665Q220.8042,51.68621,219.74033,50.77633Z" transform="translate(-15.85247 -2.9)"/><path class="cls-2" d="M222.50655,62.27187c-1.77607-1.5189-3.52112-3.07537-5.249-4.65134q-1.29811.87063-2.60416,1.72917c-.01155.0076-.02309.01351-.03464.02038a13.91956,13.91956,0,0,0,6.27412,4.22787Q221.7001,62.93542,222.50655,62.27187Z" transform="translate(-15.85247 -2.9)"/><path class="cls-2" d="M218.2696,31.09631q.37508.2862.75121.571l.30278-.2131c1.38461-.97454,2.76816-1.95243,4.12457-2.96637q-.94308-.91744-1.837-1.88822a23.99388,23.99388,0,0,0-4.26653,3.8159C217.64756,30.67244,218.00251,30.89247,218.2696,31.09631Z" transform="translate(-15.85247 -2.9)"/><path class="cls-2" d="M235.55719,36.01126q.59982.40013,1.2022.79588,1.54365,1.01408,3.09491,2.01679,1.568-1.3035,3.11712-2.62953c-1.288-.96054-2.59949-1.89123-3.9137-2.81733q-1.16418.88368-2.33128,1.76352C236.3378,35.43228,235.94665,35.72062,235.55719,36.01126Z" transform="translate(-15.85247 -2.9)"/><path class="cls-2" d="M210.73662,51.56985l.00973.053.02752-.01824Z" transform="translate(-15.85247 -2.9)"/><path class="cls-2" d="M233.7332,29.54892q-1.61162,1.47775-3.33011,2.83575c1.24939.93981,2.526,1.84408,3.818,2.72553q1.75659-1.3074,3.50258-2.629l.03-.02277q-.356-.2511-.71147-.50282C235.92943,31.1672,234.8227,30.36936,233.7332,29.54892Z" transform="translate(-15.85247 -2.9)"/><path class="cls-2" d="M243.97443,48.573c.12106-.90117.21741-1.80437.28281-2.70919-.06359.05528-.12687.11085-.19045.16609q-1.15482,1.00359-2.31324,2.003,1.046.71267,2.09576,1.42Q243.915,49.01274,243.97443,48.573Z" transform="translate(-15.85247 -2.9)"/><path class="cls-2" d="M230.498,24.50471c-.06809.08238-.14122.16273-.21754.24136q.453.41247.91521.81439,1.18681,1.02774,2.42918,1.9892.93288-.90087,1.81619-1.85044A14.18777,14.18777,0,0,0,230.498,24.50471Z" transform="translate(-15.85247 -2.9)"/><path class="cls-2" d="M225.80458,28.60364q.2838.25806.57068.51289,1.35447,1.1964,2.77764,2.30736,1.41962-1.115,2.77765-2.30736.28755-.254.57068-.51289-.52869-.41342-1.05038-.83567-1.17624-.95647-2.298-1.97752-1.11962,1.02229-2.29795,1.97752Q226.33423,28.19147,225.80458,28.60364Z" transform="translate(-15.85247 -2.9)"/><path class="cls-2" d="M224.681,27.54966q1.239-.96418,2.42918-1.9892.46306-.401.91521-.81439c-.06577-.06777-.12911-.13684-.18895-.20737A13.85044,13.85044,0,0,0,222.99,25.83493Q223.81306,26.71405,224.681,27.54966Z" transform="translate(-15.85247 -2.9)"/><path class="cls-2" d="M218.45151,38.82393q1.55056-1.00363,3.0949-2.01679.47317-.31086.94485-.62466c-.51882-.38646-1.03921-.77079-1.55666-1.15911-.64849-.48672-1.29362-.97786-1.93993-1.46755-1.22942.86713-2.45508,1.7398-3.66028,2.63858Q216.88392,37.5199,218.45151,38.82393Z" transform="translate(-15.85247 -2.9)"/><path class="cls-2" d="M220.29921,32.63668q1.58886,1.20072,3.18626,2.39028c.115.08558.2309.17.346.25548,1.37837-.936,2.74033-1.8966,4.07127-2.89777q-1.7142-1.362-3.3301-2.83575c-1.08951.82044-2.19623,1.61828-3.309,2.40669Q220.78206,32.29685,220.29921,32.63668Z" transform="translate(-15.85247 -2.9)"/><path class="cls-3" d="M238.60082,16.381a37.22026,37.22026,0,0,0-.06381-6.5425,12.466,12.466,0,0,0-1.4604-5.59482,3.27748,3.27748,0,0,0-1.029-.99331,1.81669,1.81669,0,0,0-2.0073-.08991,2.79876,2.79876,0,0,0-1.3521,1.77188c-.43857,1.09481-.44516,2.27245-.80314,3.38916a17.44478,17.44478,0,0,0-2.91387-3.97632,2.00645,2.00645,0,0,0-2.71109,0,3.43015,3.43015,0,0,0-.68569.89661,9.9448,9.9448,0,0,0-1.174,5.05637c-.00834.1189-.01483.23795-.02225.35692a10.871,10.871,0,0,0-1.55766-1.13464,7.67564,7.67564,0,0,0-2.20515-1.05794,2.14915,2.14915,0,0,0-2.3582,1.33893c-2.119,4.003.35723,11.23148.35723,11.23148a12.76774,12.76774,0,0,0,3.04049,4.96567,11.39364,11.39364,0,0,0,4.1442,2.60489,11.15386,11.15386,0,0,0,5.87565.33713S237.36942,27.16745,238.60082,16.381Z" transform="translate(-15.85247 -2.9)"/><path class="cls-2" d="M25.18041,39.9725q1.80359,1.47986,3.63238,2.92821,2.0744-1.46553,4.13617-2.94874c-.04418-.03211-.08873-.06375-.13292-.09588q-1.84562-1.34213-3.67887-2.70117c-1.36221.91246-2.7374,1.80457-4.11171,2.68943C25.07726,39.88691,25.12855,39.93,25.18041,39.9725Z" transform="translate(-15.85247 -2.9)"/><path class="cls-2" d="M43.96032,39.84435c-1.46049-.94037-2.92186-1.8892-4.36769-2.8617q-2.0127,1.49268-4.03769,2.96873,2.18793,1.57575,4.39277,3.12788,1.94193-1.5369,3.85766-3.10676C43.85723,39.93,43.90852,39.88691,43.96032,39.84435Z" transform="translate(-15.85247 -2.9)"/><path class="cls-2" d="M49.68591,43.75671c.00068-.07619.00149-.15239.00162-.22861q-1.77785-1.14386-3.55569-2.28768-.41167-.26487-.82435-.5299Q43.29188,42.371,41.247,43.9955q2.26131,1.58436,4.5398,3.14395.74753-.64528,1.49481-1.29085Q48.48579,44.805,49.68591,43.75671Z" transform="translate(-15.85247 -2.9)"/><path class="cls-2" d="M34.49289,47.28988q2.11519-1.5919,4.20026-3.22352-2.22912-1.57552-4.44139-3.17453-2.08655,1.508-4.1874,2.99609Q32.26193,45.61065,34.49289,47.28988Z" transform="translate(-15.85247 -2.9)"/><path class="cls-2" d="M49.62956,41.67713a28.16022,28.16022,0,0,0-.56232-4.118q-1.25834,1.0727-2.52878,2.131Q48.08285,40.68541,49.62956,41.67713Z" transform="translate(-15.85247 -2.9)"/><path class="cls-2" d="M23.67829,40.71052q-.41252.265-.82435.5299-1.8529,1.19213-3.70583,2.38426,1.27659,1.11369,2.55611,2.22392.64185.55626,1.2857,1.11026,2.27031-1.55966,4.52451-3.14255Q25.58317,42.27973,23.67829,40.71052Z" transform="translate(-15.85247 -2.9)"/><path class="cls-2" d="M39.28873,52.70288q-2.416-1.72823-4.79584-3.506-2.37974,1.77774-4.79584,3.506,2.39144,2.02964,4.79584,4.04383Q36.89667,54.73175,39.28873,52.70288Z" transform="translate(-15.85247 -2.9)"/><path class="cls-2" d="M33.222,48.2418q-2.24391-1.69566-4.45455-3.43471-2.28144,1.60561-4.58111,3.185,2.15,1.8512,4.311,3.68952Q30.87707,49.98566,33.222,48.2418Z" transform="translate(-15.85247 -2.9)"/><path class="cls-2" d="M30.47747,36.24685q1.881,1.3885,3.77367,2.761,2.0099-1.45782,4.006-2.93442c-1.27527-.87916-2.5342-1.78079-3.76424-2.71691C33.182,34.35417,31.8388,35.31311,30.47747,36.24685Z" transform="translate(-15.85247 -2.9)"/><path class="cls-2" d="M30.45164,64.45138Q29.73686,63.86761,29.03,63.274q-.49779.4103-.99665.81936A19.37732,19.37732,0,0,0,30.45164,64.45138Z" transform="translate(-15.85247 -2.9)"/><path class="cls-2" d="M21.68344,47.8521Q20.63038,46.942,19.579,46.02987q-.88635-.77025-1.77-1.54361-.86154.55435-1.72321,1.10869a24.90223,24.90223,0,0,0-.22946,3.674q.78441.731,1.56808,1.46408Q19.56141,49.30355,21.68344,47.8521Z" transform="translate(-15.85247 -2.9)"/><path class="cls-2" d="M36.18346,60.15145q-.84646-.70457-1.69057-1.41213-.84507.70637-1.69057,1.41213-1.28792,1.07187-2.58014,2.13843,1.36429,1.13931,2.75873,2.24086c.19951-.00388.3987-.00922.59739-.01742.58416-.02412,1.18012-.05458,1.77963-.098q1.52427-1.203,3.01259-2.45116Q37.27638,61.05863,36.18346,60.15145Z" transform="translate(-15.85247 -2.9)"/><path class="cls-2" d="M47.39151,56.44987q.154-.36192.29243-.73035-.29046.26857-.581.53707Q47.24714,56.35342,47.39151,56.44987Z" transform="translate(-15.85247 -2.9)"/><path class="cls-2" d="M17.26533,52.6804q-.39706.26435-.79415.52876a16.60416,16.60416,0,0,0,2.5515,4.99475.82051.82051,0,0,1,.19663-.17846q1.11213-.7291,2.2167-1.46955Q19.34093,54.628,17.26533,52.6804Z" transform="translate(-15.85247 -2.9)"/><path class="cls-2" d="M17.92931,42.59186q2.26056-1.44835,4.518-2.9017-1.51827-1.26485-3.01933-2.55011-.78834.61019-1.55865,1.24314a28.37158,28.37158,0,0,0-1.05088,3.27037C17.17478,41.97966,17.55588,42.28823,17.92931,42.59186Z" transform="translate(-15.85247 -2.9)"/><path class="cls-2" d="M19.48765,35.17332c1.174-.88177,2.36834-1.73758,3.56742-2.58544L23.03148,32.57c-.43926-.33492-.89318-.64953-1.29849-1.00628a26.36348,26.36348,0,0,0-2.32909,3.53708Z" transform="translate(-15.85247 -2.9)"/><path class="cls-2" d="M16.44934,43.3032c-.01759.09089-.03663.1815-.05335.27254l.21173-.13585C16.55487,43.39437,16.50226,43.34866,16.44934,43.3032Z" transform="translate(-15.85247 -2.9)"/><path class="cls-2" d="M48.06242,34.11353a21.48173,21.48173,0,0,0-1.2067-2.66283,10.7869,10.7869,0,0,1-1.17612.95955Q46.87588,33.25466,48.06242,34.11353Z" transform="translate(-15.85247 -2.9)"/><path class="cls-2" d="M39.9942,44.98369q-2.1,1.64868-4.2304,3.25811,2.34453,1.7441,4.72463,3.43976,2.05455-1.74916,4.10085-3.508Q42.28389,46.58989,39.9942,44.98369Z" transform="translate(-15.85247 -2.9)"/><path class="cls-2" d="M41.74075,54.43958q-.58514-.40936-1.16745-.82264-2.4387,2.07095-4.88969,4.12725,1.93051,1.61328,3.86946,3.21649c1.7229-1.47531,3.41591-2.98735,5.09219-4.51833Q43.18735,55.44916,41.74075,54.43958Z" transform="translate(-15.85247 -2.9)"/><path class="cls-2" d="M48.91142,51.11479q-1.40118-.94244-2.797-1.89276c-.07451-.05078-.1484-.10236-.22285-.15317q-.9924.85451-1.98611,1.70747-1.06317.91074-2.12959,1.81766,2.00175,1.41,4.028,2.785,1.37648-1.26865,2.74333-2.54694Q48.751,51.97876,48.91142,51.11479Z" transform="translate(-15.85247 -2.9)"/><path class="cls-2" d="M33.30217,57.74419q-2.45152-2.05568-4.88969-4.12725-.58308.41226-1.16745.82264-1.66458,1.16463-3.34639,2.30437c1.69045,1.54112,3.39875,3.06178,5.13775,4.54473Q31.17386,59.52188,33.30217,57.74419Z" transform="translate(-15.85247 -2.9)"/><path class="cls-2" d="M40.19763,28.48781c1.35641,1.01394,2.74,1.99183,4.12457,2.96637l.04811.03386c.12025-.09163.24094-.18277.36113-.2745a6.044,6.044,0,0,0,1.33344-1.11328,12.10245,12.10245,0,0,0-3.87957-3.66546Q41.22119,27.49336,40.19763,28.48781Z" transform="translate(-15.85247 -2.9)"/><path class="cls-2" d="M45.94238,57.32109c-1.71316,1.56511-3.4428,3.11163-5.20215,4.62211q.57512.47439,1.15147.947a12.0035,12.0035,0,0,0,4.8306-5.04542Q46.33187,57.58371,45.94238,57.32109Z" transform="translate(-15.85247 -2.9)"/><path class="cls-2" d="M39.55837,62.94733q-.67564.569-1.358,1.12971a16.49152,16.49152,0,0,0,1.92889-.4563c.05991-.01831.11832-.03881.17754-.05814Q39.93289,63.25468,39.55837,62.94733Z" transform="translate(-15.85247 -2.9)"/><path class="cls-2" d="M25.08031,50.77633q-1.1-.94237-2.19685-1.88861c-.21929.15-.43732.30185-.6568.45152Q20.4052,50.58133,18.57325,51.808q2.07532,1.94193,4.16462,3.87268,2.25037-1.5226,4.472-3.08665Q26.1442,51.68621,25.08031,50.77633Z" transform="translate(-15.85247 -2.9)"/><path class="cls-2" d="M27.84654,62.27187c-1.77607-1.5189-3.52112-3.07537-5.249-4.65134q-1.29813.87063-2.60417,1.72917c-.01154.0076-.02308.01351-.03463.02038A13.91956,13.91956,0,0,0,26.23285,63.598Q27.04009,62.93542,27.84654,62.27187Z" transform="translate(-15.85247 -2.9)"/><path class="cls-2" d="M23.60959,31.09631q.37507.2862.75121.571l.30278-.2131c1.38461-.97454,2.76816-1.95243,4.12457-2.96637q-.94308-.91744-1.837-1.88822a23.99388,23.99388,0,0,0-4.26653,3.8159C22.98755,30.67244,23.3425,30.89247,23.60959,31.09631Z" transform="translate(-15.85247 -2.9)"/><path class="cls-2" d="M40.89718,36.01126q.59982.40013,1.2022.79588,1.54365,1.01408,3.09491,2.01679,1.568-1.3035,3.11712-2.62953c-1.288-.96054-2.59949-1.89123-3.91371-2.81733q-1.16417.88368-2.33127,1.76352C41.67778,35.43228,41.28664,35.72062,40.89718,36.01126Z" transform="translate(-15.85247 -2.9)"/><path class="cls-2" d="M16.07661,51.56985l.00973.053.02752-.01824Z" transform="translate(-15.85247 -2.9)"/><path class="cls-2" d="M39.07319,29.54892q-1.61162,1.47775-3.33011,2.83575c1.24938.93981,2.526,1.84408,3.818,2.72553q1.75659-1.3074,3.50258-2.629l.03-.02277q-.356-.2511-.71147-.50282C41.26942,31.1672,40.16269,30.36936,39.07319,29.54892Z" transform="translate(-15.85247 -2.9)"/><path class="cls-2" d="M49.31442,48.573c.12106-.90117.21741-1.80437.28281-2.70919-.06359.05528-.12687.11085-.19046.16609q-1.15481,1.00359-2.31323,2.003,1.046.71267,2.09576,1.42Q49.255,49.01274,49.31442,48.573Z" transform="translate(-15.85247 -2.9)"/><path class="cls-2" d="M35.83794,24.50471c-.06809.08238-.14122.16273-.21754.24136q.453.41247.91521.81439,1.18682,1.02774,2.42918,1.9892.93286-.90087,1.81619-1.85044A14.18777,14.18777,0,0,0,35.83794,24.50471Z" transform="translate(-15.85247 -2.9)"/><path class="cls-2" d="M31.14457,28.60364q.2838.25806.57068.51289,1.35447,1.1964,2.77764,2.30736,1.41962-1.115,2.77764-2.30736.28757-.254.57068-.51289-.52867-.41342-1.05037-.83567-1.17624-.95647-2.29795-1.97752-1.11962,1.02229-2.29795,1.97752Q31.67421,28.19147,31.14457,28.60364Z" transform="translate(-15.85247 -2.9)"/><path class="cls-2" d="M30.021,27.54966q1.239-.96418,2.42918-1.9892.46307-.401.91521-.81439c-.06577-.06777-.12911-.13684-.189-.20737A13.85045,13.85045,0,0,0,28.33,25.83493Q29.153,26.71405,30.021,27.54966Z" transform="translate(-15.85247 -2.9)"/><path class="cls-2" d="M23.79149,38.82393q1.55058-1.00363,3.09491-2.01679.47318-.31086.94485-.62466c-.51882-.38646-1.03921-.77079-1.55666-1.15911-.64849-.48672-1.29362-.97786-1.93994-1.46755-1.22941.86713-2.45508,1.7398-3.66028,2.63858Q22.22392,37.5199,23.79149,38.82393Z" transform="translate(-15.85247 -2.9)"/><path class="cls-2" d="M25.6392,32.63668q1.58886,1.20072,3.18626,2.39028c.115.08558.2309.17.346.25548,1.37837-.936,2.74032-1.8966,4.07127-2.89777q-1.7142-1.362-3.33011-2.83575c-1.0895.82044-2.19623,1.61828-3.30894,2.40669Q26.122,32.29685,25.6392,32.63668Z" transform="translate(-15.85247 -2.9)"/><path class="cls-3" d="M43.94081,16.381a37.22026,37.22026,0,0,0-.06381-6.5425,12.46616,12.46616,0,0,0-1.4604-5.59482,3.27748,3.27748,0,0,0-1.029-.99331,1.8167,1.8167,0,0,0-2.00731-.08991,2.79878,2.79878,0,0,0-1.35209,1.77188C37.5896,6.02719,37.583,7.20483,37.225,8.32154a17.44478,17.44478,0,0,0-2.91387-3.97632,2.00645,2.00645,0,0,0-2.71109,0,3.43015,3.43015,0,0,0-.68569.89661,9.94492,9.94492,0,0,0-1.174,5.05637c-.00833.1189-.01482.23795-.02224.35692a10.87157,10.87157,0,0,0-1.55766-1.13464,7.67564,7.67564,0,0,0-2.20515-1.05794,2.14915,2.14915,0,0,0-2.3582,1.33893c-2.119,4.003.35723,11.23148.35723,11.23148a12.76774,12.76774,0,0,0,3.04049,4.96567,11.39364,11.39364,0,0,0,4.1442,2.60489,11.15386,11.15386,0,0,0,5.87565.33713S42.70941,27.16745,43.94081,16.381Z" transform="translate(-15.85247 -2.9)"/></svg>